%TF.GenerationSoftware,KiCad,Pcbnew,9.0.4*%
%TF.CreationDate,2025-10-17T20:59:14-05:00*%
%TF.ProjectId,raspi-ir,72617370-692d-4697-922e-6b696361645f,rev?*%
%TF.SameCoordinates,Original*%
%TF.FileFunction,Copper,L1,Top*%
%TF.FilePolarity,Positive*%
%FSLAX46Y46*%
G04 Gerber Fmt 4.6, Leading zero omitted, Abs format (unit mm)*
G04 Created by KiCad (PCBNEW 9.0.4) date 2025-10-17 20:59:14*
%MOMM*%
%LPD*%
G01*
G04 APERTURE LIST*
G04 Aperture macros list*
%AMRoundRect*
0 Rectangle with rounded corners*
0 $1 Rounding radius*
0 $2 $3 $4 $5 $6 $7 $8 $9 X,Y pos of 4 corners*
0 Add a 4 corners polygon primitive as box body*
4,1,4,$2,$3,$4,$5,$6,$7,$8,$9,$2,$3,0*
0 Add four circle primitives for the rounded corners*
1,1,$1+$1,$2,$3*
1,1,$1+$1,$4,$5*
1,1,$1+$1,$6,$7*
1,1,$1+$1,$8,$9*
0 Add four rect primitives between the rounded corners*
20,1,$1+$1,$2,$3,$4,$5,0*
20,1,$1+$1,$4,$5,$6,$7,0*
20,1,$1+$1,$6,$7,$8,$9,0*
20,1,$1+$1,$8,$9,$2,$3,0*%
G04 Aperture macros list end*
%TA.AperFunction,ComponentPad*%
%ADD10RoundRect,0.250200X-0.649800X0.649800X-0.649800X-0.649800X0.649800X-0.649800X0.649800X0.649800X0*%
%TD*%
%TA.AperFunction,ComponentPad*%
%ADD11C,1.800000*%
%TD*%
%TA.AperFunction,SMDPad,CuDef*%
%ADD12RoundRect,0.250000X-0.262500X-0.450000X0.262500X-0.450000X0.262500X0.450000X-0.262500X0.450000X0*%
%TD*%
%TA.AperFunction,SMDPad,CuDef*%
%ADD13RoundRect,0.250000X0.262500X0.450000X-0.262500X0.450000X-0.262500X-0.450000X0.262500X-0.450000X0*%
%TD*%
%TA.AperFunction,SMDPad,CuDef*%
%ADD14RoundRect,0.150000X0.150000X-0.587500X0.150000X0.587500X-0.150000X0.587500X-0.150000X-0.587500X0*%
%TD*%
%TA.AperFunction,ComponentPad*%
%ADD15R,1.700000X1.700000*%
%TD*%
%TA.AperFunction,ComponentPad*%
%ADD16C,1.700000*%
%TD*%
%TA.AperFunction,ViaPad*%
%ADD17C,0.600000*%
%TD*%
%TA.AperFunction,Conductor*%
%ADD18C,0.200000*%
%TD*%
G04 APERTURE END LIST*
D10*
%TO.P,U1,1,OUT*%
%TO.N,Net-(J1-Pin_4)*%
X142630000Y-105791000D03*
D11*
%TO.P,U1,2,GND*%
%TO.N,GND*%
X142630000Y-108331000D03*
%TO.P,U1,3,Vs*%
%TO.N,+3.3V*%
X142630000Y-110871000D03*
%TD*%
D12*
%TO.P,R3,1*%
%TO.N,Net-(Q1-B)*%
X142470500Y-101600000D03*
%TO.P,R3,2*%
%TO.N,Net-(J1-Pin_25)*%
X144295500Y-101600000D03*
%TD*%
D13*
%TO.P,R2,1*%
%TO.N,+3.3V*%
X144295500Y-82931000D03*
%TO.P,R2,2*%
%TO.N,Net-(J2-Pin_1)*%
X142470500Y-82931000D03*
%TD*%
D12*
%TO.P,R1,1*%
%TO.N,Net-(Q1-B)*%
X142447000Y-75311000D03*
%TO.P,R1,2*%
%TO.N,Net-(J1-Pin_3)*%
X144272000Y-75311000D03*
%TD*%
D14*
%TO.P,Q1,1,B*%
%TO.N,Net-(Q1-B)*%
X142245000Y-97917000D03*
%TO.P,Q1,2,E*%
%TO.N,GND*%
X144145000Y-97917000D03*
%TO.P,Q1,3,C*%
%TO.N,Net-(J2-Pin_2)*%
X143195000Y-96042000D03*
%TD*%
D15*
%TO.P,J2,1,Pin_1*%
%TO.N,Net-(J2-Pin_1)*%
X142494000Y-89784000D03*
D16*
%TO.P,J2,2,Pin_2*%
%TO.N,Net-(J2-Pin_2)*%
X142494000Y-92324000D03*
%TD*%
D15*
%TO.P,J1,1,Pin_1*%
%TO.N,GND*%
X147320000Y-72771000D03*
D16*
%TO.P,J1,2,Pin_2*%
%TO.N,unconnected-(J1-Pin_2-Pad2)*%
X149860000Y-72771000D03*
%TO.P,J1,3,Pin_3*%
%TO.N,Net-(J1-Pin_3)*%
X147320000Y-75311000D03*
%TO.P,J1,4,Pin_4*%
%TO.N,Net-(J1-Pin_4)*%
X149860000Y-75311000D03*
%TO.P,J1,5,Pin_5*%
%TO.N,unconnected-(J1-Pin_5-Pad5)*%
X147320000Y-77851000D03*
%TO.P,J1,6,Pin_6*%
%TO.N,GND*%
X149860000Y-77851000D03*
%TO.P,J1,7,Pin_7*%
%TO.N,unconnected-(J1-Pin_7-Pad7)*%
X147320000Y-80391000D03*
%TO.P,J1,8,Pin_8*%
%TO.N,unconnected-(J1-Pin_8-Pad8)*%
X149860000Y-80391000D03*
%TO.P,J1,9,Pin_9*%
%TO.N,+3.3V*%
X147320000Y-82931000D03*
%TO.P,J1,10,Pin_10*%
%TO.N,unconnected-(J1-Pin_10-Pad10)*%
X149860000Y-82931000D03*
%TO.P,J1,11,Pin_11*%
%TO.N,unconnected-(J1-Pin_11-Pad11)*%
X147320000Y-85471000D03*
%TO.P,J1,12,Pin_12*%
%TO.N,GND*%
X149860000Y-85471000D03*
%TO.P,J1,13,Pin_13*%
%TO.N,unconnected-(J1-Pin_13-Pad13)*%
X147320000Y-88011000D03*
%TO.P,J1,14,Pin_14*%
%TO.N,unconnected-(J1-Pin_14-Pad14)*%
X149860000Y-88011000D03*
%TO.P,J1,15,Pin_15*%
%TO.N,unconnected-(J1-Pin_15-Pad15)*%
X147320000Y-90551000D03*
%TO.P,J1,16,Pin_16*%
%TO.N,unconnected-(J1-Pin_16-Pad16)*%
X149860000Y-90551000D03*
%TO.P,J1,17,Pin_17*%
%TO.N,GND*%
X147320000Y-93091000D03*
%TO.P,J1,18,Pin_18*%
%TO.N,unconnected-(J1-Pin_18-Pad18)*%
X149860000Y-93091000D03*
%TO.P,J1,19,Pin_19*%
%TO.N,unconnected-(J1-Pin_19-Pad19)*%
X147320000Y-95631000D03*
%TO.P,J1,20,Pin_20*%
%TO.N,unconnected-(J1-Pin_20-Pad20)*%
X149860000Y-95631000D03*
%TO.P,J1,21,Pin_21*%
%TO.N,unconnected-(J1-Pin_21-Pad21)*%
X147320000Y-98171000D03*
%TO.P,J1,22,Pin_22*%
%TO.N,GND*%
X149860000Y-98171000D03*
%TO.P,J1,23,Pin_23*%
%TO.N,unconnected-(J1-Pin_23-Pad23)*%
X147320000Y-100711000D03*
%TO.P,J1,24,Pin_24*%
%TO.N,unconnected-(J1-Pin_24-Pad24)*%
X149860000Y-100711000D03*
%TO.P,J1,25,Pin_25*%
%TO.N,Net-(J1-Pin_25)*%
X147320000Y-103251000D03*
%TO.P,J1,26,Pin_26*%
%TO.N,GND*%
X149860000Y-103251000D03*
%TO.P,J1,27,Pin_27*%
%TO.N,unconnected-(J1-Pin_27-Pad27)*%
X147320000Y-105791000D03*
%TO.P,J1,28,Pin_28*%
%TO.N,unconnected-(J1-Pin_28-Pad28)*%
X149860000Y-105791000D03*
%TO.P,J1,29,Pin_29*%
%TO.N,unconnected-(J1-Pin_29-Pad29)*%
X147320000Y-108331000D03*
%TO.P,J1,30,Pin_30*%
%TO.N,unconnected-(J1-Pin_30-Pad30)*%
X149860000Y-108331000D03*
%TO.P,J1,31,Pin_31*%
%TO.N,GND*%
X147320000Y-110871000D03*
%TO.P,J1,32,Pin_32*%
%TO.N,unconnected-(J1-Pin_32-Pad32)*%
X149860000Y-110871000D03*
%TD*%
D17*
%TO.N,GND*%
X144145000Y-99695000D03*
X143383000Y-73152000D03*
X142621000Y-103505000D03*
X144272000Y-79121000D03*
%TD*%
D18*
%TO.N,Net-(Q1-B)*%
X141343000Y-82042000D02*
X141343000Y-94861000D01*
X141343000Y-94861000D02*
X142245000Y-95763000D01*
X142447000Y-80938000D02*
X141343000Y-82042000D01*
X142447000Y-75311000D02*
X142447000Y-80938000D01*
X142245000Y-95763000D02*
X142245000Y-97917000D01*
%TO.N,Net-(J2-Pin_1)*%
X141744000Y-89034000D02*
X142494000Y-89784000D01*
X141744000Y-83657500D02*
X141744000Y-89034000D01*
X142470500Y-82931000D02*
X141744000Y-83657500D01*
%TO.N,GND*%
X148709000Y-109482000D02*
X147320000Y-110871000D01*
X148709000Y-104402000D02*
X148709000Y-109482000D01*
X149860000Y-103251000D02*
X148709000Y-104402000D01*
%TO.N,Net-(J1-Pin_4)*%
X148709000Y-76462000D02*
X149860000Y-75311000D01*
X147796760Y-104402000D02*
X148709000Y-103489760D01*
X144019000Y-104402000D02*
X147796760Y-104402000D01*
X148709000Y-103489760D02*
X148709000Y-76462000D01*
X142630000Y-105791000D02*
X144019000Y-104402000D01*
%TO.N,Net-(Q1-B)*%
X142470500Y-98142500D02*
X142245000Y-97917000D01*
X142470500Y-101600000D02*
X142470500Y-98142500D01*
%TO.N,Net-(J1-Pin_25)*%
X145669000Y-101600000D02*
X147320000Y-103251000D01*
X144295500Y-101600000D02*
X145669000Y-101600000D01*
%TO.N,Net-(J2-Pin_2)*%
X142494000Y-95341000D02*
X143195000Y-96042000D01*
X142494000Y-92324000D02*
X142494000Y-95341000D01*
%TO.N,+3.3V*%
X147320000Y-82931000D02*
X144295500Y-82931000D01*
%TO.N,Net-(J1-Pin_3)*%
X147320000Y-75311000D02*
X144272000Y-75311000D01*
%TD*%
%TA.AperFunction,Conductor*%
%TO.N,GND*%
G36*
X140786703Y-95112104D02*
G01*
X140812888Y-95143818D01*
X140862479Y-95229715D01*
X140981349Y-95348585D01*
X140981355Y-95348590D01*
X141608181Y-95975416D01*
X141641666Y-96036739D01*
X141644500Y-96063097D01*
X141644500Y-96808691D01*
X141624815Y-96875730D01*
X141608181Y-96896372D01*
X141576923Y-96927629D01*
X141576917Y-96927637D01*
X141493255Y-97069103D01*
X141493254Y-97069106D01*
X141447402Y-97226926D01*
X141447401Y-97226932D01*
X141444500Y-97263798D01*
X141444500Y-98570201D01*
X141447401Y-98607067D01*
X141447402Y-98607073D01*
X141493254Y-98764893D01*
X141493255Y-98764896D01*
X141576917Y-98906362D01*
X141576923Y-98906370D01*
X141693129Y-99022576D01*
X141693140Y-99022585D01*
X141809120Y-99091174D01*
X141856804Y-99142242D01*
X141870000Y-99197906D01*
X141870000Y-100407491D01*
X141850315Y-100474530D01*
X141811098Y-100513029D01*
X141739344Y-100557287D01*
X141615289Y-100681342D01*
X141523187Y-100830663D01*
X141523186Y-100830666D01*
X141468001Y-100997203D01*
X141468001Y-100997204D01*
X141468000Y-100997204D01*
X141457500Y-101099983D01*
X141457500Y-102100001D01*
X141457501Y-102100019D01*
X141468000Y-102202796D01*
X141468001Y-102202799D01*
X141476389Y-102228111D01*
X141523186Y-102369334D01*
X141615288Y-102518656D01*
X141739344Y-102642712D01*
X141888666Y-102734814D01*
X142055203Y-102789999D01*
X142157991Y-102800500D01*
X142783008Y-102800499D01*
X142783016Y-102800498D01*
X142783019Y-102800498D01*
X142839302Y-102794748D01*
X142885797Y-102789999D01*
X143052334Y-102734814D01*
X143201656Y-102642712D01*
X143295319Y-102549049D01*
X143356642Y-102515564D01*
X143426334Y-102520548D01*
X143470681Y-102549049D01*
X143564344Y-102642712D01*
X143713666Y-102734814D01*
X143880203Y-102789999D01*
X143982991Y-102800500D01*
X144608008Y-102800499D01*
X144608016Y-102800498D01*
X144608019Y-102800498D01*
X144664302Y-102794748D01*
X144710797Y-102789999D01*
X144877334Y-102734814D01*
X145026656Y-102642712D01*
X145150712Y-102518656D01*
X145242814Y-102369334D01*
X145265768Y-102300062D01*
X145305537Y-102242621D01*
X145370053Y-102215797D01*
X145438829Y-102228111D01*
X145471153Y-102251388D01*
X145986241Y-102766476D01*
X146019726Y-102827799D01*
X146016492Y-102892473D01*
X146002753Y-102934757D01*
X145969500Y-103144713D01*
X145969500Y-103357287D01*
X146002754Y-103567243D01*
X146014877Y-103604554D01*
X146026129Y-103639182D01*
X146028124Y-103709023D01*
X145992044Y-103768856D01*
X145929343Y-103799684D01*
X145908198Y-103801500D01*
X144105670Y-103801500D01*
X144105654Y-103801499D01*
X144098058Y-103801499D01*
X143939943Y-103801499D01*
X143863579Y-103821961D01*
X143787214Y-103842423D01*
X143787209Y-103842426D01*
X143650290Y-103921475D01*
X143650282Y-103921481D01*
X143217583Y-104354181D01*
X143156260Y-104387666D01*
X143129902Y-104390500D01*
X141930166Y-104390500D01*
X141827361Y-104401003D01*
X141660782Y-104456202D01*
X141660777Y-104456204D01*
X141511417Y-104548331D01*
X141387331Y-104672417D01*
X141295204Y-104821777D01*
X141295202Y-104821782D01*
X141240003Y-104988361D01*
X141229500Y-105091166D01*
X141229500Y-106490833D01*
X141240003Y-106593638D01*
X141279196Y-106711913D01*
X141295203Y-106760220D01*
X141387330Y-106909581D01*
X141511419Y-107033670D01*
X141660780Y-107125797D01*
X141808718Y-107174818D01*
X141857396Y-107204843D01*
X142541415Y-107888861D01*
X142456306Y-107911667D01*
X142353694Y-107970910D01*
X142269910Y-108054694D01*
X142210667Y-108157306D01*
X142187861Y-108242414D01*
X141478932Y-107533485D01*
X141478931Y-107533485D01*
X141432616Y-107597233D01*
X141332567Y-107793589D01*
X141264473Y-108003164D01*
X141230000Y-108220818D01*
X141230000Y-108441181D01*
X141264473Y-108658835D01*
X141332567Y-108868410D01*
X141432611Y-109064756D01*
X141478932Y-109128513D01*
X142187861Y-108419584D01*
X142210667Y-108504694D01*
X142269910Y-108607306D01*
X142353694Y-108691090D01*
X142456306Y-108750333D01*
X142541414Y-108773137D01*
X141832485Y-109482065D01*
X141832485Y-109482066D01*
X141857680Y-109500371D01*
X141900346Y-109555701D01*
X141906325Y-109625314D01*
X141873720Y-109687110D01*
X141857681Y-109701008D01*
X141717636Y-109802756D01*
X141561756Y-109958636D01*
X141561752Y-109958641D01*
X141432187Y-110136974D01*
X141332104Y-110333393D01*
X141332103Y-110333396D01*
X141263985Y-110543047D01*
X141242610Y-110678007D01*
X141229500Y-110760778D01*
X141229500Y-110981222D01*
X141242610Y-111063993D01*
X141263985Y-111198952D01*
X141332103Y-111408603D01*
X141332104Y-111408606D01*
X141432184Y-111605021D01*
X141499457Y-111697615D01*
X141522936Y-111763422D01*
X141507110Y-111831476D01*
X141457004Y-111880170D01*
X141399138Y-111894500D01*
X140705500Y-111894500D01*
X140638461Y-111874815D01*
X140592706Y-111822011D01*
X140581500Y-111770500D01*
X140581500Y-95205817D01*
X140601185Y-95138778D01*
X140653989Y-95093023D01*
X140723147Y-95083079D01*
X140786703Y-95112104D01*
G37*
%TD.AperFunction*%
%TA.AperFunction,Conductor*%
G36*
X146070749Y-105022185D02*
G01*
X146116504Y-105074989D01*
X146126448Y-105144147D01*
X146114195Y-105182795D01*
X146068444Y-105272585D01*
X146002753Y-105474760D01*
X145969500Y-105684713D01*
X145969500Y-105897286D01*
X146002753Y-106107239D01*
X146068444Y-106309414D01*
X146164951Y-106498820D01*
X146289890Y-106670786D01*
X146440213Y-106821109D01*
X146612182Y-106946050D01*
X146620946Y-106950516D01*
X146671742Y-106998491D01*
X146688536Y-107066312D01*
X146665998Y-107132447D01*
X146620946Y-107171484D01*
X146612182Y-107175949D01*
X146440213Y-107300890D01*
X146289890Y-107451213D01*
X146164951Y-107623179D01*
X146068444Y-107812585D01*
X146002753Y-108014760D01*
X145969500Y-108224713D01*
X145969500Y-108437286D01*
X145996428Y-108607306D01*
X146002754Y-108647243D01*
X146046214Y-108781000D01*
X146068444Y-108849414D01*
X146164951Y-109038820D01*
X146289890Y-109210786D01*
X146440213Y-109361109D01*
X146612179Y-109486048D01*
X146612181Y-109486049D01*
X146612184Y-109486051D01*
X146621493Y-109490794D01*
X146672290Y-109538766D01*
X146689087Y-109606587D01*
X146666552Y-109672722D01*
X146621505Y-109711760D01*
X146612446Y-109716376D01*
X146612440Y-109716380D01*
X146558282Y-109755727D01*
X146558282Y-109755728D01*
X147190591Y-110388037D01*
X147127007Y-110405075D01*
X147012993Y-110470901D01*
X146919901Y-110563993D01*
X146854075Y-110678007D01*
X146837037Y-110741591D01*
X146204728Y-110109282D01*
X146204727Y-110109282D01*
X146165380Y-110163439D01*
X146068904Y-110352782D01*
X146003242Y-110554869D01*
X146003242Y-110554872D01*
X145970000Y-110764753D01*
X145970000Y-110977246D01*
X146003242Y-111187127D01*
X146003242Y-111187130D01*
X146068904Y-111389217D01*
X146165379Y-111578557D01*
X146251879Y-111697615D01*
X146275359Y-111763421D01*
X146259533Y-111831475D01*
X146209428Y-111880170D01*
X146151561Y-111894500D01*
X143860862Y-111894500D01*
X143793823Y-111874815D01*
X143748068Y-111822011D01*
X143738124Y-111752853D01*
X143760543Y-111697615D01*
X143782431Y-111667487D01*
X143827815Y-111605022D01*
X143927895Y-111408606D01*
X143996015Y-111198951D01*
X144030500Y-110981222D01*
X144030500Y-110760778D01*
X143996015Y-110543049D01*
X143940114Y-110371000D01*
X143927896Y-110333396D01*
X143927895Y-110333393D01*
X143868868Y-110217548D01*
X143827815Y-110136978D01*
X143744985Y-110022971D01*
X143698247Y-109958641D01*
X143698243Y-109958636D01*
X143542363Y-109802756D01*
X143542358Y-109802752D01*
X143402319Y-109701008D01*
X143359653Y-109645678D01*
X143353674Y-109576065D01*
X143386279Y-109514270D01*
X143402319Y-109500372D01*
X143427513Y-109482066D01*
X143427514Y-109482066D01*
X142718585Y-108773138D01*
X142803694Y-108750333D01*
X142906306Y-108691090D01*
X142990090Y-108607306D01*
X143049333Y-108504694D01*
X143072137Y-108419585D01*
X143781066Y-109128514D01*
X143781066Y-109128513D01*
X143827386Y-109064760D01*
X143927432Y-108868410D01*
X143995526Y-108658835D01*
X144030000Y-108441181D01*
X144030000Y-108220818D01*
X143995526Y-108003164D01*
X143927432Y-107793589D01*
X143827388Y-107597243D01*
X143781066Y-107533485D01*
X143781065Y-107533485D01*
X143072137Y-108242413D01*
X143049333Y-108157306D01*
X142990090Y-108054694D01*
X142906306Y-107970910D01*
X142803694Y-107911667D01*
X142718582Y-107888861D01*
X143402601Y-107204844D01*
X143451279Y-107174819D01*
X143451282Y-107174818D01*
X143599220Y-107125797D01*
X143748581Y-107033670D01*
X143872670Y-106909581D01*
X143964797Y-106760220D01*
X144019996Y-106593638D01*
X144030500Y-106490826D01*
X144030500Y-105291097D01*
X144039144Y-105261656D01*
X144045668Y-105231670D01*
X144049422Y-105226654D01*
X144050185Y-105224058D01*
X144066814Y-105203420D01*
X144231418Y-105038816D01*
X144292740Y-105005334D01*
X144319098Y-105002500D01*
X146003710Y-105002500D01*
X146070749Y-105022185D01*
G37*
%TD.AperFunction*%
%TA.AperFunction,Conductor*%
G36*
X148661444Y-108984999D02*
G01*
X148700486Y-109030056D01*
X148704951Y-109038820D01*
X148829890Y-109210786D01*
X148980213Y-109361109D01*
X149152182Y-109486050D01*
X149160946Y-109490516D01*
X149211742Y-109538491D01*
X149228536Y-109606312D01*
X149205998Y-109672447D01*
X149160946Y-109711484D01*
X149152182Y-109715949D01*
X148980213Y-109840890D01*
X148829890Y-109991213D01*
X148704949Y-110163182D01*
X148700202Y-110172499D01*
X148652227Y-110223293D01*
X148584405Y-110240087D01*
X148518271Y-110217548D01*
X148479234Y-110172495D01*
X148474626Y-110163452D01*
X148435270Y-110109282D01*
X148435269Y-110109282D01*
X147802962Y-110741589D01*
X147785925Y-110678007D01*
X147720099Y-110563993D01*
X147627007Y-110470901D01*
X147512993Y-110405075D01*
X147449409Y-110388037D01*
X148081716Y-109755728D01*
X148027547Y-109716373D01*
X148027547Y-109716372D01*
X148018500Y-109711763D01*
X147967706Y-109663788D01*
X147950912Y-109595966D01*
X147973451Y-109529832D01*
X148018508Y-109490793D01*
X148027816Y-109486051D01*
X148107007Y-109428515D01*
X148199786Y-109361109D01*
X148199788Y-109361106D01*
X148199792Y-109361104D01*
X148350104Y-109210792D01*
X148350106Y-109210788D01*
X148350109Y-109210786D01*
X148475048Y-109038820D01*
X148475047Y-109038820D01*
X148475051Y-109038816D01*
X148479514Y-109030054D01*
X148527488Y-108979259D01*
X148595308Y-108962463D01*
X148661444Y-108984999D01*
G37*
%TD.AperFunction*%
%TA.AperFunction,Conductor*%
G36*
X148661444Y-106444999D02*
G01*
X148700484Y-106490054D01*
X148704591Y-106498115D01*
X148704951Y-106498820D01*
X148829890Y-106670786D01*
X148980213Y-106821109D01*
X149152182Y-106946050D01*
X149160946Y-106950516D01*
X149211742Y-106998491D01*
X149228536Y-107066312D01*
X149205998Y-107132447D01*
X149160946Y-107171484D01*
X149152182Y-107175949D01*
X148980213Y-107300890D01*
X148829890Y-107451213D01*
X148704949Y-107623182D01*
X148700484Y-107631946D01*
X148652509Y-107682742D01*
X148584688Y-107699536D01*
X148518553Y-107676998D01*
X148479516Y-107631946D01*
X148475050Y-107623182D01*
X148350109Y-107451213D01*
X148199786Y-107300890D01*
X148027820Y-107175951D01*
X148025596Y-107174818D01*
X148019054Y-107171485D01*
X147968259Y-107123512D01*
X147951463Y-107055692D01*
X147973999Y-106989556D01*
X148019054Y-106950515D01*
X148027816Y-106946051D01*
X148078013Y-106909581D01*
X148199786Y-106821109D01*
X148199788Y-106821106D01*
X148199792Y-106821104D01*
X148350104Y-106670792D01*
X148350106Y-106670788D01*
X148350109Y-106670786D01*
X148475048Y-106498820D01*
X148475047Y-106498820D01*
X148475051Y-106498816D01*
X148479514Y-106490054D01*
X148527488Y-106439259D01*
X148595308Y-106422463D01*
X148661444Y-106444999D01*
G37*
%TD.AperFunction*%
%TA.AperFunction,Conductor*%
G36*
X149394075Y-103443993D02*
G01*
X149459901Y-103558007D01*
X149552993Y-103651099D01*
X149667007Y-103716925D01*
X149730590Y-103733962D01*
X149098282Y-104366269D01*
X149098282Y-104366270D01*
X149152452Y-104405626D01*
X149152451Y-104405626D01*
X149161495Y-104410234D01*
X149212292Y-104458208D01*
X149229087Y-104526029D01*
X149206550Y-104592164D01*
X149161499Y-104631202D01*
X149152182Y-104635949D01*
X148980213Y-104760890D01*
X148829890Y-104911213D01*
X148704949Y-105083182D01*
X148700484Y-105091946D01*
X148652509Y-105142742D01*
X148584688Y-105159536D01*
X148518553Y-105136998D01*
X148479516Y-105091946D01*
X148475050Y-105083182D01*
X148350109Y-104911213D01*
X148331126Y-104892230D01*
X148297641Y-104830907D01*
X148302625Y-104761215D01*
X148331126Y-104716868D01*
X148693813Y-104354181D01*
X149067506Y-103980488D01*
X149067511Y-103980484D01*
X149077714Y-103970280D01*
X149077716Y-103970280D01*
X149189520Y-103858476D01*
X149240941Y-103769412D01*
X149268577Y-103721545D01*
X149309500Y-103568817D01*
X149309500Y-103499308D01*
X149329185Y-103432269D01*
X149345819Y-103411627D01*
X149377037Y-103380408D01*
X149394075Y-103443993D01*
G37*
%TD.AperFunction*%
%TA.AperFunction,Conductor*%
G36*
X150975270Y-104012717D02*
G01*
X151003771Y-104010474D01*
X151072148Y-104024838D01*
X151121905Y-104073890D01*
X151137500Y-104134092D01*
X151137500Y-104870086D01*
X151117815Y-104937125D01*
X151065011Y-104982880D01*
X150995853Y-104992824D01*
X150932297Y-104963799D01*
X150913182Y-104942971D01*
X150890109Y-104911214D01*
X150890105Y-104911209D01*
X150739786Y-104760890D01*
X150567817Y-104635949D01*
X150558504Y-104631204D01*
X150507707Y-104583230D01*
X150490912Y-104515409D01*
X150513449Y-104449274D01*
X150558507Y-104410232D01*
X150567555Y-104405622D01*
X150621716Y-104366270D01*
X150621717Y-104366270D01*
X149989408Y-103733962D01*
X150052993Y-103716925D01*
X150167007Y-103651099D01*
X150260099Y-103558007D01*
X150325925Y-103443993D01*
X150342962Y-103380408D01*
X150975270Y-104012717D01*
G37*
%TD.AperFunction*%
%TA.AperFunction,Conductor*%
G36*
X151099919Y-101542987D02*
G01*
X151134277Y-101603825D01*
X151137500Y-101631913D01*
X151137500Y-102367907D01*
X151117815Y-102434946D01*
X151065011Y-102480701D01*
X151003771Y-102491525D01*
X150975270Y-102489281D01*
X150342962Y-103121590D01*
X150325925Y-103058007D01*
X150260099Y-102943993D01*
X150167007Y-102850901D01*
X150052993Y-102785075D01*
X149989408Y-102768037D01*
X150621716Y-102135728D01*
X150567547Y-102096373D01*
X150567547Y-102096372D01*
X150558500Y-102091763D01*
X150507706Y-102043788D01*
X150490912Y-101975966D01*
X150513451Y-101909832D01*
X150558508Y-101870793D01*
X150567816Y-101866051D01*
X150648500Y-101807431D01*
X150739786Y-101741109D01*
X150739788Y-101741106D01*
X150739792Y-101741104D01*
X150890104Y-101590792D01*
X150913181Y-101559028D01*
X150968510Y-101516363D01*
X151038123Y-101510382D01*
X151099919Y-101542987D01*
G37*
%TD.AperFunction*%
%TA.AperFunction,Conductor*%
G36*
X146048883Y-83535787D02*
G01*
X146064088Y-83535136D01*
X146081726Y-83545431D01*
X146101320Y-83551185D01*
X146112216Y-83563228D01*
X146124430Y-83570358D01*
X146144765Y-83599205D01*
X146164947Y-83638814D01*
X146164948Y-83638815D01*
X146289890Y-83810786D01*
X146440213Y-83961109D01*
X146612182Y-84086050D01*
X146620946Y-84090516D01*
X146671742Y-84138491D01*
X146688536Y-84206312D01*
X146665998Y-84272447D01*
X146620946Y-84311484D01*
X146612182Y-84315949D01*
X146440213Y-84440890D01*
X146289890Y-84591213D01*
X146164951Y-84763179D01*
X146068444Y-84952585D01*
X146002753Y-85154760D01*
X145969500Y-85364713D01*
X145969500Y-85577286D01*
X146002753Y-85787239D01*
X146068444Y-85989414D01*
X146164951Y-86178820D01*
X146289890Y-86350786D01*
X146440213Y-86501109D01*
X146612182Y-86626050D01*
X146620946Y-86630516D01*
X146671742Y-86678491D01*
X146688536Y-86746312D01*
X146665998Y-86812447D01*
X146620946Y-86851484D01*
X146612182Y-86855949D01*
X146440213Y-86980890D01*
X146289890Y-87131213D01*
X146164951Y-87303179D01*
X146068444Y-87492585D01*
X146002753Y-87694760D01*
X145969500Y-87904713D01*
X145969500Y-88117286D01*
X145999943Y-88309500D01*
X146002754Y-88327243D01*
X146055703Y-88490204D01*
X146068444Y-88529414D01*
X146164951Y-88718820D01*
X146289890Y-88890786D01*
X146440213Y-89041109D01*
X146612182Y-89166050D01*
X146620946Y-89170516D01*
X146671742Y-89218491D01*
X146688536Y-89286312D01*
X146665998Y-89352447D01*
X146620946Y-89391484D01*
X146612182Y-89395949D01*
X146440213Y-89520890D01*
X146289890Y-89671213D01*
X146164951Y-89843179D01*
X146068444Y-90032585D01*
X146002753Y-90234760D01*
X145969500Y-90444713D01*
X145969500Y-90657286D01*
X146002753Y-90867239D01*
X146068444Y-91069414D01*
X146164951Y-91258820D01*
X146289890Y-91430786D01*
X146440213Y-91581109D01*
X146612179Y-91706048D01*
X146612181Y-91706049D01*
X146612184Y-91706051D01*
X146621493Y-91710794D01*
X146672290Y-91758766D01*
X146689087Y-91826587D01*
X146666552Y-91892722D01*
X146621505Y-91931760D01*
X146612446Y-91936376D01*
X146612440Y-91936380D01*
X146558282Y-91975727D01*
X146558282Y-91975728D01*
X147190591Y-92608037D01*
X147127007Y-92625075D01*
X147012993Y-92690901D01*
X146919901Y-92783993D01*
X146854075Y-92898007D01*
X146837037Y-92961591D01*
X146204728Y-92329282D01*
X146204727Y-92329282D01*
X146165380Y-92383439D01*
X146068904Y-92572782D01*
X146003242Y-92774869D01*
X146003242Y-92774872D01*
X145970000Y-92984753D01*
X145970000Y-93197246D01*
X146003242Y-93407127D01*
X146003242Y-93407130D01*
X146068904Y-93609217D01*
X146165375Y-93798550D01*
X146204728Y-93852716D01*
X146837037Y-93220408D01*
X146854075Y-93283993D01*
X146919901Y-93398007D01*
X147012993Y-93491099D01*
X147127007Y-93556925D01*
X147190589Y-93573962D01*
X146558282Y-94206269D01*
X146558282Y-94206270D01*
X146612452Y-94245626D01*
X146612451Y-94245626D01*
X146621495Y-94250234D01*
X146672292Y-94298208D01*
X146689087Y-94366029D01*
X146666550Y-94432164D01*
X146621499Y-94471202D01*
X146612182Y-94475949D01*
X146440213Y-94600890D01*
X146289890Y-94751213D01*
X146164951Y-94923179D01*
X146068444Y-95112585D01*
X146002753Y-95314760D01*
X145969500Y-95524713D01*
X145969500Y-95737287D01*
X146002754Y-95947243D01*
X146040397Y-96063097D01*
X146068444Y-96149414D01*
X146164951Y-96338820D01*
X146289890Y-96510786D01*
X146440213Y-96661109D01*
X146612182Y-96786050D01*
X146620946Y-96790516D01*
X146671742Y-96838491D01*
X146688536Y-96906312D01*
X146665998Y-96972447D01*
X146620946Y-97011484D01*
X146612182Y-97015949D01*
X146440213Y-97140890D01*
X146289890Y-97291213D01*
X146164951Y-97463179D01*
X146068444Y-97652585D01*
X146002753Y-97854760D01*
X146001291Y-97863993D01*
X145969500Y-98064713D01*
X145969500Y-98277287D01*
X146002754Y-98487243D01*
X146041689Y-98607073D01*
X146068444Y-98689414D01*
X146164951Y-98878820D01*
X146289890Y-99050786D01*
X146440213Y-99201109D01*
X146612182Y-99326050D01*
X146620946Y-99330516D01*
X146671742Y-99378491D01*
X146688536Y-99446312D01*
X146665998Y-99512447D01*
X146620946Y-99551484D01*
X146612182Y-99555949D01*
X146440213Y-99680890D01*
X146289890Y-99831213D01*
X146164951Y-100003179D01*
X146068444Y-100192585D01*
X146002753Y-100394760D01*
X145977011Y-100557288D01*
X145969500Y-100604713D01*
X145969500Y-100817287D01*
X145971619Y-100830668D01*
X145979583Y-100880947D01*
X145970628Y-100950240D01*
X145925632Y-101003692D01*
X145858881Y-101024332D01*
X145825017Y-101020120D01*
X145763705Y-101003692D01*
X145748057Y-100999499D01*
X145589943Y-100999499D01*
X145582347Y-100999499D01*
X145582331Y-100999500D01*
X145388301Y-100999500D01*
X145321262Y-100979815D01*
X145275507Y-100927011D01*
X145270595Y-100914504D01*
X145242814Y-100830666D01*
X145150712Y-100681344D01*
X145026656Y-100557288D01*
X144877334Y-100465186D01*
X144710797Y-100410001D01*
X144710795Y-100410000D01*
X144608010Y-100399500D01*
X143982998Y-100399500D01*
X143982980Y-100399501D01*
X143880203Y-100410000D01*
X143880200Y-100410001D01*
X143713668Y-100465185D01*
X143713663Y-100465187D01*
X143564342Y-100557289D01*
X143470681Y-100650951D01*
X143467902Y-100652468D01*
X143466249Y-100655170D01*
X143437435Y-100669104D01*
X143409358Y-100684436D01*
X143406200Y-100684210D01*
X143403349Y-100685589D01*
X143371580Y-100681734D01*
X143339666Y-100679452D01*
X143336188Y-100677439D01*
X143333988Y-100677173D01*
X143323886Y-100670323D01*
X143303884Y-100658751D01*
X143299420Y-100655052D01*
X143201656Y-100557288D01*
X143122548Y-100508494D01*
X143115884Y-100502972D01*
X143100992Y-100480887D01*
X143083178Y-100461081D01*
X143080911Y-100451105D01*
X143076822Y-100445041D01*
X143076530Y-100431828D01*
X143071000Y-100407491D01*
X143071000Y-98570149D01*
X143345000Y-98570149D01*
X143347899Y-98606989D01*
X143347900Y-98606995D01*
X143393716Y-98764693D01*
X143393717Y-98764696D01*
X143477314Y-98906052D01*
X143477321Y-98906061D01*
X143593438Y-99022178D01*
X143593447Y-99022185D01*
X143734801Y-99105781D01*
X143892514Y-99151600D01*
X143892511Y-99151600D01*
X143894998Y-99151795D01*
X143895000Y-99151795D01*
X144395000Y-99151795D01*
X144395001Y-99151795D01*
X144397486Y-99151600D01*
X144555198Y-99105781D01*
X144696552Y-99022185D01*
X144696561Y-99022178D01*
X144812678Y-98906061D01*
X144812685Y-98906052D01*
X144896282Y-98764696D01*
X144896283Y-98764693D01*
X144942099Y-98606995D01*
X144942100Y-98606989D01*
X144944999Y-98570149D01*
X144945000Y-98570134D01*
X144945000Y-98167000D01*
X144395000Y-98167000D01*
X144395000Y-99151795D01*
X143895000Y-99151795D01*
X143895000Y-98167000D01*
X143345000Y-98167000D01*
X143345000Y-98570149D01*
X143071000Y-98570149D01*
X143071000Y-98063445D01*
X143071000Y-98063443D01*
X143049725Y-97984043D01*
X143045500Y-97951950D01*
X143045500Y-97404000D01*
X143048050Y-97395314D01*
X143046762Y-97386353D01*
X143057740Y-97362312D01*
X143065185Y-97336961D01*
X143072025Y-97331033D01*
X143075787Y-97322797D01*
X143098021Y-97308507D01*
X143117989Y-97291206D01*
X143128503Y-97288918D01*
X143134565Y-97285023D01*
X143169500Y-97280000D01*
X143221000Y-97280000D01*
X143288039Y-97299685D01*
X143333794Y-97352489D01*
X143345000Y-97404000D01*
X143345000Y-97667000D01*
X143895000Y-97667000D01*
X144395000Y-97667000D01*
X144945000Y-97667000D01*
X144945000Y-97263865D01*
X144944999Y-97263850D01*
X144942100Y-97227010D01*
X144942099Y-97227004D01*
X144896283Y-97069306D01*
X144896282Y-97069303D01*
X144812685Y-96927947D01*
X144812678Y-96927938D01*
X144696561Y-96811821D01*
X144696552Y-96811814D01*
X144555196Y-96728217D01*
X144555193Y-96728216D01*
X144397494Y-96682400D01*
X144397497Y-96682400D01*
X144395000Y-96682203D01*
X144395000Y-97667000D01*
X143895000Y-97667000D01*
X143895000Y-97011314D01*
X143912267Y-96948194D01*
X143946744Y-96889898D01*
X143992598Y-96732069D01*
X143995500Y-96695194D01*
X143995500Y-95388806D01*
X143992598Y-95351931D01*
X143991627Y-95348590D01*
X143957091Y-95229715D01*
X143946744Y-95194102D01*
X143863081Y-95052635D01*
X143863079Y-95052633D01*
X143863076Y-95052629D01*
X143746870Y-94936423D01*
X143746862Y-94936417D01*
X143605396Y-94852755D01*
X143605393Y-94852754D01*
X143447573Y-94806902D01*
X143447567Y-94806901D01*
X143410701Y-94804000D01*
X143410694Y-94804000D01*
X143218500Y-94804000D01*
X143151461Y-94784315D01*
X143105706Y-94731511D01*
X143094500Y-94680000D01*
X143094500Y-93609718D01*
X143114185Y-93542679D01*
X143162207Y-93499233D01*
X143201815Y-93479052D01*
X143201815Y-93479051D01*
X143201816Y-93479051D01*
X143293193Y-93412661D01*
X143373786Y-93354109D01*
X143373788Y-93354106D01*
X143373792Y-93354104D01*
X143524104Y-93203792D01*
X143524106Y-93203788D01*
X143524109Y-93203786D01*
X143578899Y-93128371D01*
X143649051Y-93031816D01*
X143745557Y-92842412D01*
X143811246Y-92640243D01*
X143844500Y-92430287D01*
X143844500Y-92217713D01*
X143811246Y-92007757D01*
X143745557Y-91805588D01*
X143649051Y-91616184D01*
X143649049Y-91616181D01*
X143649048Y-91616179D01*
X143524109Y-91444213D01*
X143410569Y-91330673D01*
X143377084Y-91269350D01*
X143382068Y-91199658D01*
X143423940Y-91143725D01*
X143454915Y-91126810D01*
X143586331Y-91077796D01*
X143701546Y-90991546D01*
X143787796Y-90876331D01*
X143838091Y-90741483D01*
X143844500Y-90681873D01*
X143844499Y-88886128D01*
X143838091Y-88826517D01*
X143787796Y-88691669D01*
X143787795Y-88691668D01*
X143787793Y-88691664D01*
X143701547Y-88576455D01*
X143701544Y-88576452D01*
X143586335Y-88490206D01*
X143586328Y-88490202D01*
X143451482Y-88439908D01*
X143451483Y-88439908D01*
X143391883Y-88433501D01*
X143391881Y-88433500D01*
X143391873Y-88433500D01*
X143391865Y-88433500D01*
X142468500Y-88433500D01*
X142401461Y-88413815D01*
X142355706Y-88361011D01*
X142344500Y-88309500D01*
X142344500Y-84255499D01*
X142364185Y-84188460D01*
X142416989Y-84142705D01*
X142468500Y-84131499D01*
X142783002Y-84131499D01*
X142783008Y-84131499D01*
X142885797Y-84120999D01*
X143052334Y-84065814D01*
X143201656Y-83973712D01*
X143295319Y-83880049D01*
X143356642Y-83846564D01*
X143426334Y-83851548D01*
X143470681Y-83880049D01*
X143564344Y-83973712D01*
X143713666Y-84065814D01*
X143880203Y-84120999D01*
X143982991Y-84131500D01*
X144608008Y-84131499D01*
X144608016Y-84131498D01*
X144608019Y-84131498D01*
X144664302Y-84125748D01*
X144710797Y-84120999D01*
X144877334Y-84065814D01*
X145026656Y-83973712D01*
X145150712Y-83849656D01*
X145242814Y-83700334D01*
X145270595Y-83616495D01*
X145310368Y-83559051D01*
X145374884Y-83532228D01*
X145388301Y-83531500D01*
X146034281Y-83531500D01*
X146048883Y-83535787D01*
G37*
%TD.AperFunction*%
%TA.AperFunction,Conductor*%
G36*
X150975270Y-98932717D02*
G01*
X151003771Y-98930474D01*
X151072148Y-98944838D01*
X151121905Y-98993890D01*
X151137500Y-99054092D01*
X151137500Y-99790086D01*
X151117815Y-99857125D01*
X151065011Y-99902880D01*
X150995853Y-99912824D01*
X150932297Y-99883799D01*
X150913182Y-99862971D01*
X150890109Y-99831214D01*
X150890105Y-99831209D01*
X150739786Y-99680890D01*
X150567817Y-99555949D01*
X150558504Y-99551204D01*
X150507707Y-99503230D01*
X150490912Y-99435409D01*
X150513449Y-99369274D01*
X150558507Y-99330232D01*
X150567555Y-99325622D01*
X150621716Y-99286270D01*
X150621717Y-99286270D01*
X149989409Y-98653962D01*
X150052993Y-98636925D01*
X150167007Y-98571099D01*
X150260099Y-98478007D01*
X150325925Y-98363993D01*
X150342962Y-98300408D01*
X150975270Y-98932717D01*
G37*
%TD.AperFunction*%
%TA.AperFunction,Conductor*%
G36*
X151099919Y-96462987D02*
G01*
X151134277Y-96523825D01*
X151137500Y-96551913D01*
X151137500Y-97287907D01*
X151117815Y-97354946D01*
X151065011Y-97400701D01*
X151003771Y-97411525D01*
X150975270Y-97409281D01*
X150342962Y-98041590D01*
X150325925Y-97978007D01*
X150260099Y-97863993D01*
X150167007Y-97770901D01*
X150052993Y-97705075D01*
X149989407Y-97688036D01*
X150621716Y-97055728D01*
X150567547Y-97016373D01*
X150567547Y-97016372D01*
X150558500Y-97011763D01*
X150507706Y-96963788D01*
X150490912Y-96895966D01*
X150513451Y-96829832D01*
X150558508Y-96790793D01*
X150567816Y-96786051D01*
X150648500Y-96727431D01*
X150739786Y-96661109D01*
X150739788Y-96661106D01*
X150739792Y-96661104D01*
X150890104Y-96510792D01*
X150913181Y-96479028D01*
X150968510Y-96436363D01*
X151038123Y-96430382D01*
X151099919Y-96462987D01*
G37*
%TD.AperFunction*%
%TA.AperFunction,Conductor*%
G36*
X150975270Y-86232717D02*
G01*
X151003771Y-86230474D01*
X151072148Y-86244838D01*
X151121905Y-86293890D01*
X151137500Y-86354092D01*
X151137500Y-87090086D01*
X151117815Y-87157125D01*
X151065011Y-87202880D01*
X150995853Y-87212824D01*
X150932297Y-87183799D01*
X150913182Y-87162971D01*
X150890109Y-87131214D01*
X150890105Y-87131209D01*
X150739786Y-86980890D01*
X150567817Y-86855949D01*
X150558504Y-86851204D01*
X150507707Y-86803230D01*
X150490912Y-86735409D01*
X150513449Y-86669274D01*
X150558507Y-86630232D01*
X150567555Y-86625622D01*
X150621716Y-86586270D01*
X150621717Y-86586270D01*
X149989409Y-85953962D01*
X150052993Y-85936925D01*
X150167007Y-85871099D01*
X150260099Y-85778007D01*
X150325925Y-85663993D01*
X150342962Y-85600408D01*
X150975270Y-86232717D01*
G37*
%TD.AperFunction*%
%TA.AperFunction,Conductor*%
G36*
X151099919Y-83762987D02*
G01*
X151134277Y-83823825D01*
X151137500Y-83851913D01*
X151137500Y-84587907D01*
X151117815Y-84654946D01*
X151065011Y-84700701D01*
X151003771Y-84711525D01*
X150975270Y-84709281D01*
X150342962Y-85341590D01*
X150325925Y-85278007D01*
X150260099Y-85163993D01*
X150167007Y-85070901D01*
X150052993Y-85005075D01*
X149989407Y-84988036D01*
X150621716Y-84355728D01*
X150567547Y-84316373D01*
X150567547Y-84316372D01*
X150558500Y-84311763D01*
X150507706Y-84263788D01*
X150490912Y-84195966D01*
X150513451Y-84129832D01*
X150558508Y-84090793D01*
X150567816Y-84086051D01*
X150648500Y-84027431D01*
X150739786Y-83961109D01*
X150739788Y-83961106D01*
X150739792Y-83961104D01*
X150890104Y-83810792D01*
X150913181Y-83779028D01*
X150968510Y-83736363D01*
X151038123Y-83730382D01*
X151099919Y-83762987D01*
G37*
%TD.AperFunction*%
%TA.AperFunction,Conductor*%
G36*
X146101320Y-75931185D02*
G01*
X146144765Y-75979205D01*
X146164947Y-76018814D01*
X146164948Y-76018815D01*
X146289890Y-76190786D01*
X146440213Y-76341109D01*
X146612182Y-76466050D01*
X146620946Y-76470516D01*
X146671742Y-76518491D01*
X146688536Y-76586312D01*
X146665998Y-76652447D01*
X146620946Y-76691484D01*
X146612182Y-76695949D01*
X146440213Y-76820890D01*
X146289890Y-76971213D01*
X146164951Y-77143179D01*
X146068444Y-77332585D01*
X146002753Y-77534760D01*
X145969500Y-77744713D01*
X145969500Y-77957286D01*
X146002753Y-78167239D01*
X146068444Y-78369414D01*
X146164951Y-78558820D01*
X146289890Y-78730786D01*
X146440213Y-78881109D01*
X146612182Y-79006050D01*
X146620946Y-79010516D01*
X146671742Y-79058491D01*
X146688536Y-79126312D01*
X146665998Y-79192447D01*
X146620946Y-79231484D01*
X146612182Y-79235949D01*
X146440213Y-79360890D01*
X146289890Y-79511213D01*
X146164951Y-79683179D01*
X146068444Y-79872585D01*
X146002753Y-80074760D01*
X145969500Y-80284713D01*
X145969500Y-80497287D01*
X146002754Y-80707243D01*
X146052044Y-80858942D01*
X146068444Y-80909414D01*
X146164951Y-81098820D01*
X146289890Y-81270786D01*
X146440213Y-81421109D01*
X146612182Y-81546050D01*
X146620946Y-81550516D01*
X146671742Y-81598491D01*
X146688536Y-81666312D01*
X146665998Y-81732447D01*
X146620946Y-81771484D01*
X146612182Y-81775949D01*
X146440213Y-81900890D01*
X146289890Y-82051213D01*
X146164948Y-82223184D01*
X146164947Y-82223185D01*
X146144765Y-82262795D01*
X146096791Y-82313591D01*
X146034281Y-82330500D01*
X145388301Y-82330500D01*
X145321262Y-82310815D01*
X145275507Y-82258011D01*
X145270595Y-82245504D01*
X145263199Y-82223184D01*
X145242814Y-82161666D01*
X145150712Y-82012344D01*
X145026656Y-81888288D01*
X144933888Y-81831069D01*
X144877336Y-81796187D01*
X144877331Y-81796185D01*
X144872702Y-81794651D01*
X144710797Y-81741001D01*
X144710795Y-81741000D01*
X144608010Y-81730500D01*
X143982998Y-81730500D01*
X143982980Y-81730501D01*
X143880203Y-81741000D01*
X143880200Y-81741001D01*
X143713668Y-81796185D01*
X143713663Y-81796187D01*
X143564342Y-81888289D01*
X143470681Y-81981951D01*
X143409358Y-82015436D01*
X143339666Y-82010452D01*
X143295319Y-81981951D01*
X143201657Y-81888289D01*
X143201656Y-81888288D01*
X143108888Y-81831069D01*
X143052336Y-81796187D01*
X143052331Y-81796185D01*
X143047702Y-81794651D01*
X142885797Y-81741001D01*
X142885794Y-81741000D01*
X142789218Y-81731134D01*
X142724526Y-81704738D01*
X142684375Y-81647557D01*
X142681512Y-81577746D01*
X142714140Y-81520095D01*
X142927520Y-81306716D01*
X143006577Y-81169784D01*
X143047501Y-81017057D01*
X143047501Y-80858942D01*
X143047501Y-80851347D01*
X143047500Y-80851329D01*
X143047500Y-76503507D01*
X143047900Y-76502144D01*
X143047530Y-76500772D01*
X143057714Y-76468720D01*
X143067185Y-76436468D01*
X143068397Y-76435098D01*
X143068689Y-76434183D01*
X143072175Y-76430834D01*
X143092384Y-76408026D01*
X143099042Y-76402509D01*
X143178156Y-76353712D01*
X143275920Y-76255947D01*
X143280384Y-76252249D01*
X143307363Y-76240640D01*
X143333142Y-76226564D01*
X143339088Y-76226989D01*
X143344565Y-76224633D01*
X143373536Y-76229452D01*
X143402834Y-76231548D01*
X143408667Y-76235297D01*
X143413487Y-76236099D01*
X143422208Y-76243999D01*
X143447181Y-76260049D01*
X143540844Y-76353712D01*
X143690166Y-76445814D01*
X143856703Y-76500999D01*
X143959491Y-76511500D01*
X144584508Y-76511499D01*
X144584516Y-76511498D01*
X144584519Y-76511498D01*
X144662745Y-76503507D01*
X144687297Y-76500999D01*
X144853834Y-76445814D01*
X145003156Y-76353712D01*
X145127212Y-76229656D01*
X145219314Y-76080334D01*
X145247095Y-75996495D01*
X145286868Y-75939051D01*
X145351384Y-75912228D01*
X145364801Y-75911500D01*
X146034281Y-75911500D01*
X146101320Y-75931185D01*
G37*
%TD.AperFunction*%
%TA.AperFunction,Conductor*%
G36*
X145913039Y-71894185D02*
G01*
X145958794Y-71946989D01*
X145970000Y-71998500D01*
X145970000Y-72521000D01*
X146886988Y-72521000D01*
X146854075Y-72578007D01*
X146820000Y-72705174D01*
X146820000Y-72836826D01*
X146854075Y-72963993D01*
X146886988Y-73021000D01*
X145970000Y-73021000D01*
X145970000Y-73668844D01*
X145976401Y-73728372D01*
X145976403Y-73728379D01*
X146026645Y-73863086D01*
X146026649Y-73863093D01*
X146112809Y-73978187D01*
X146112812Y-73978190D01*
X146227906Y-74064350D01*
X146227913Y-74064354D01*
X146359470Y-74113422D01*
X146415404Y-74155293D01*
X146439821Y-74220758D01*
X146424969Y-74289031D01*
X146403819Y-74317285D01*
X146289889Y-74431215D01*
X146164948Y-74603184D01*
X146164947Y-74603185D01*
X146144765Y-74642795D01*
X146096791Y-74693591D01*
X146034281Y-74710500D01*
X145364801Y-74710500D01*
X145297762Y-74690815D01*
X145252007Y-74638011D01*
X145247095Y-74625504D01*
X145219314Y-74541666D01*
X145127212Y-74392344D01*
X145003156Y-74268288D01*
X144853834Y-74176186D01*
X144687297Y-74121001D01*
X144687295Y-74121000D01*
X144584510Y-74110500D01*
X143959498Y-74110500D01*
X143959480Y-74110501D01*
X143856703Y-74121000D01*
X143856700Y-74121001D01*
X143690168Y-74176185D01*
X143690163Y-74176187D01*
X143540842Y-74268289D01*
X143447181Y-74361951D01*
X143385858Y-74395436D01*
X143316166Y-74390452D01*
X143271819Y-74361951D01*
X143178157Y-74268289D01*
X143178156Y-74268288D01*
X143028834Y-74176186D01*
X142862297Y-74121001D01*
X142862295Y-74121000D01*
X142759510Y-74110500D01*
X142134498Y-74110500D01*
X142134480Y-74110501D01*
X142031703Y-74121000D01*
X142031700Y-74121001D01*
X141865168Y-74176185D01*
X141865163Y-74176187D01*
X141715842Y-74268289D01*
X141591789Y-74392342D01*
X141499687Y-74541663D01*
X141499685Y-74541668D01*
X141476397Y-74611946D01*
X141444501Y-74708203D01*
X141444501Y-74708204D01*
X141444500Y-74708204D01*
X141434000Y-74810983D01*
X141434000Y-75811001D01*
X141434001Y-75811019D01*
X141444500Y-75913796D01*
X141444501Y-75913799D01*
X141479301Y-76018816D01*
X141499686Y-76080334D01*
X141591788Y-76229656D01*
X141715844Y-76353712D01*
X141787596Y-76397968D01*
X141834321Y-76449915D01*
X141846500Y-76503507D01*
X141846500Y-80637902D01*
X141826815Y-80704941D01*
X141810181Y-80725583D01*
X140862481Y-81673282D01*
X140862479Y-81673284D01*
X140849485Y-81695792D01*
X140842295Y-81708246D01*
X140823384Y-81741001D01*
X140812887Y-81759182D01*
X140762319Y-81807397D01*
X140693712Y-81820619D01*
X140628847Y-81794651D01*
X140588320Y-81737736D01*
X140581500Y-81697181D01*
X140581500Y-71998500D01*
X140601185Y-71931461D01*
X140653989Y-71885706D01*
X140705500Y-71874500D01*
X145846000Y-71874500D01*
X145913039Y-71894185D01*
G37*
%TD.AperFunction*%
%TA.AperFunction,Conductor*%
G36*
X150975270Y-78612717D02*
G01*
X151003771Y-78610474D01*
X151072148Y-78624838D01*
X151121905Y-78673890D01*
X151137500Y-78734092D01*
X151137500Y-79470086D01*
X151117815Y-79537125D01*
X151065011Y-79582880D01*
X150995853Y-79592824D01*
X150932297Y-79563799D01*
X150913182Y-79542971D01*
X150890109Y-79511214D01*
X150890105Y-79511209D01*
X150739786Y-79360890D01*
X150567817Y-79235949D01*
X150558504Y-79231204D01*
X150507707Y-79183230D01*
X150490912Y-79115409D01*
X150513449Y-79049274D01*
X150558507Y-79010232D01*
X150567555Y-79005622D01*
X150621716Y-78966270D01*
X150621717Y-78966270D01*
X149989409Y-78333962D01*
X150052993Y-78316925D01*
X150167007Y-78251099D01*
X150260099Y-78158007D01*
X150325925Y-78043993D01*
X150342962Y-77980408D01*
X150975270Y-78612717D01*
G37*
%TD.AperFunction*%
%TA.AperFunction,Conductor*%
G36*
X151099919Y-76142987D02*
G01*
X151134277Y-76203825D01*
X151137500Y-76231913D01*
X151137500Y-76967907D01*
X151117815Y-77034946D01*
X151065011Y-77080701D01*
X151003771Y-77091525D01*
X150975270Y-77089281D01*
X150342962Y-77721590D01*
X150325925Y-77658007D01*
X150260099Y-77543993D01*
X150167007Y-77450901D01*
X150052993Y-77385075D01*
X149989407Y-77368036D01*
X150621716Y-76735728D01*
X150567547Y-76696373D01*
X150567547Y-76696372D01*
X150558500Y-76691763D01*
X150507706Y-76643788D01*
X150490912Y-76575966D01*
X150513451Y-76509832D01*
X150558508Y-76470793D01*
X150567816Y-76466051D01*
X150661526Y-76397967D01*
X150739786Y-76341109D01*
X150739788Y-76341106D01*
X150739792Y-76341104D01*
X150890104Y-76190792D01*
X150913181Y-76159028D01*
X150968510Y-76116363D01*
X151038123Y-76110382D01*
X151099919Y-76142987D01*
G37*
%TD.AperFunction*%
%TD*%
M02*
