%TF.GenerationSoftware,KiCad,Pcbnew,9.0.4*%
%TF.CreationDate,2025-10-17T20:59:14-05:00*%
%TF.ProjectId,raspi-ir,72617370-692d-4697-922e-6b696361645f,rev?*%
%TF.SameCoordinates,Original*%
%TF.FileFunction,Copper,L2,Bot*%
%TF.FilePolarity,Positive*%
%FSLAX46Y46*%
G04 Gerber Fmt 4.6, Leading zero omitted, Abs format (unit mm)*
G04 Created by KiCad (PCBNEW 9.0.4) date 2025-10-17 20:59:14*
%MOMM*%
%LPD*%
G01*
G04 APERTURE LIST*
G04 Aperture macros list*
%AMRoundRect*
0 Rectangle with rounded corners*
0 $1 Rounding radius*
0 $2 $3 $4 $5 $6 $7 $8 $9 X,Y pos of 4 corners*
0 Add a 4 corners polygon primitive as box body*
4,1,4,$2,$3,$4,$5,$6,$7,$8,$9,$2,$3,0*
0 Add four circle primitives for the rounded corners*
1,1,$1+$1,$2,$3*
1,1,$1+$1,$4,$5*
1,1,$1+$1,$6,$7*
1,1,$1+$1,$8,$9*
0 Add four rect primitives between the rounded corners*
20,1,$1+$1,$2,$3,$4,$5,0*
20,1,$1+$1,$4,$5,$6,$7,0*
20,1,$1+$1,$6,$7,$8,$9,0*
20,1,$1+$1,$8,$9,$2,$3,0*%
G04 Aperture macros list end*
%TA.AperFunction,ComponentPad*%
%ADD10RoundRect,0.250200X-0.649800X0.649800X-0.649800X-0.649800X0.649800X-0.649800X0.649800X0.649800X0*%
%TD*%
%TA.AperFunction,ComponentPad*%
%ADD11C,1.800000*%
%TD*%
%TA.AperFunction,ComponentPad*%
%ADD12R,1.700000X1.700000*%
%TD*%
%TA.AperFunction,ComponentPad*%
%ADD13C,1.700000*%
%TD*%
%TA.AperFunction,ViaPad*%
%ADD14C,0.600000*%
%TD*%
%TA.AperFunction,Conductor*%
%ADD15C,0.200000*%
%TD*%
G04 APERTURE END LIST*
D10*
%TO.P,U1,1,OUT*%
%TO.N,Net-(J1-Pin_4)*%
X142630000Y-105791000D03*
D11*
%TO.P,U1,2,GND*%
%TO.N,GND*%
X142630000Y-108331000D03*
%TO.P,U1,3,Vs*%
%TO.N,+3.3V*%
X142630000Y-110871000D03*
%TD*%
D12*
%TO.P,J2,1,Pin_1*%
%TO.N,Net-(J2-Pin_1)*%
X142494000Y-89784000D03*
D13*
%TO.P,J2,2,Pin_2*%
%TO.N,Net-(J2-Pin_2)*%
X142494000Y-92324000D03*
%TD*%
D12*
%TO.P,J1,1,Pin_1*%
%TO.N,GND*%
X147320000Y-72771000D03*
D13*
%TO.P,J1,2,Pin_2*%
%TO.N,unconnected-(J1-Pin_2-Pad2)*%
X149860000Y-72771000D03*
%TO.P,J1,3,Pin_3*%
%TO.N,Net-(J1-Pin_3)*%
X147320000Y-75311000D03*
%TO.P,J1,4,Pin_4*%
%TO.N,Net-(J1-Pin_4)*%
X149860000Y-75311000D03*
%TO.P,J1,5,Pin_5*%
%TO.N,unconnected-(J1-Pin_5-Pad5)*%
X147320000Y-77851000D03*
%TO.P,J1,6,Pin_6*%
%TO.N,GND*%
X149860000Y-77851000D03*
%TO.P,J1,7,Pin_7*%
%TO.N,unconnected-(J1-Pin_7-Pad7)*%
X147320000Y-80391000D03*
%TO.P,J1,8,Pin_8*%
%TO.N,unconnected-(J1-Pin_8-Pad8)*%
X149860000Y-80391000D03*
%TO.P,J1,9,Pin_9*%
%TO.N,+3.3V*%
X147320000Y-82931000D03*
%TO.P,J1,10,Pin_10*%
%TO.N,unconnected-(J1-Pin_10-Pad10)*%
X149860000Y-82931000D03*
%TO.P,J1,11,Pin_11*%
%TO.N,unconnected-(J1-Pin_11-Pad11)*%
X147320000Y-85471000D03*
%TO.P,J1,12,Pin_12*%
%TO.N,GND*%
X149860000Y-85471000D03*
%TO.P,J1,13,Pin_13*%
%TO.N,unconnected-(J1-Pin_13-Pad13)*%
X147320000Y-88011000D03*
%TO.P,J1,14,Pin_14*%
%TO.N,unconnected-(J1-Pin_14-Pad14)*%
X149860000Y-88011000D03*
%TO.P,J1,15,Pin_15*%
%TO.N,unconnected-(J1-Pin_15-Pad15)*%
X147320000Y-90551000D03*
%TO.P,J1,16,Pin_16*%
%TO.N,unconnected-(J1-Pin_16-Pad16)*%
X149860000Y-90551000D03*
%TO.P,J1,17,Pin_17*%
%TO.N,GND*%
X147320000Y-93091000D03*
%TO.P,J1,18,Pin_18*%
%TO.N,unconnected-(J1-Pin_18-Pad18)*%
X149860000Y-93091000D03*
%TO.P,J1,19,Pin_19*%
%TO.N,unconnected-(J1-Pin_19-Pad19)*%
X147320000Y-95631000D03*
%TO.P,J1,20,Pin_20*%
%TO.N,unconnected-(J1-Pin_20-Pad20)*%
X149860000Y-95631000D03*
%TO.P,J1,21,Pin_21*%
%TO.N,unconnected-(J1-Pin_21-Pad21)*%
X147320000Y-98171000D03*
%TO.P,J1,22,Pin_22*%
%TO.N,GND*%
X149860000Y-98171000D03*
%TO.P,J1,23,Pin_23*%
%TO.N,unconnected-(J1-Pin_23-Pad23)*%
X147320000Y-100711000D03*
%TO.P,J1,24,Pin_24*%
%TO.N,unconnected-(J1-Pin_24-Pad24)*%
X149860000Y-100711000D03*
%TO.P,J1,25,Pin_25*%
%TO.N,Net-(J1-Pin_25)*%
X147320000Y-103251000D03*
%TO.P,J1,26,Pin_26*%
%TO.N,GND*%
X149860000Y-103251000D03*
%TO.P,J1,27,Pin_27*%
%TO.N,unconnected-(J1-Pin_27-Pad27)*%
X147320000Y-105791000D03*
%TO.P,J1,28,Pin_28*%
%TO.N,unconnected-(J1-Pin_28-Pad28)*%
X149860000Y-105791000D03*
%TO.P,J1,29,Pin_29*%
%TO.N,unconnected-(J1-Pin_29-Pad29)*%
X147320000Y-108331000D03*
%TO.P,J1,30,Pin_30*%
%TO.N,unconnected-(J1-Pin_30-Pad30)*%
X149860000Y-108331000D03*
%TO.P,J1,31,Pin_31*%
%TO.N,GND*%
X147320000Y-110871000D03*
%TO.P,J1,32,Pin_32*%
%TO.N,unconnected-(J1-Pin_32-Pad32)*%
X149860000Y-110871000D03*
%TD*%
D14*
%TO.N,GND*%
X144145000Y-99695000D03*
X143383000Y-73152000D03*
X142621000Y-103505000D03*
X144272000Y-79121000D03*
%TD*%
D15*
%TO.N,+3.3V*%
X145542000Y-107959000D02*
X142630000Y-110871000D01*
X145542000Y-84709000D02*
X145542000Y-107959000D01*
X147320000Y-82931000D02*
X145542000Y-84709000D01*
%TO.N,GND*%
X148709000Y-74160000D02*
X147320000Y-72771000D01*
X148709000Y-76700000D02*
X148709000Y-74160000D01*
X149860000Y-77851000D02*
X148709000Y-76700000D01*
X148709000Y-79002000D02*
X149860000Y-77851000D01*
X148709000Y-84320000D02*
X148709000Y-79002000D01*
X149860000Y-85471000D02*
X148709000Y-84320000D01*
X148709000Y-91702000D02*
X147320000Y-93091000D01*
X148709000Y-86622000D02*
X148709000Y-91702000D01*
X149860000Y-85471000D02*
X148709000Y-86622000D01*
X148709000Y-94480000D02*
X148709000Y-97020000D01*
X147320000Y-93091000D02*
X148709000Y-94480000D01*
X148709000Y-97020000D02*
X149860000Y-98171000D01*
X148709000Y-99322000D02*
X149860000Y-98171000D01*
X148709000Y-102100000D02*
X148709000Y-99322000D01*
X149860000Y-103251000D02*
X148709000Y-102100000D01*
%TD*%
%TA.AperFunction,Conductor*%
%TO.N,GND*%
G36*
X145913039Y-71894185D02*
G01*
X145958794Y-71946989D01*
X145970000Y-71998500D01*
X145970000Y-72521000D01*
X146886988Y-72521000D01*
X146854075Y-72578007D01*
X146820000Y-72705174D01*
X146820000Y-72836826D01*
X146854075Y-72963993D01*
X146886988Y-73021000D01*
X145970000Y-73021000D01*
X145970000Y-73668844D01*
X145976401Y-73728372D01*
X145976403Y-73728379D01*
X146026645Y-73863086D01*
X146026649Y-73863093D01*
X146112809Y-73978187D01*
X146112812Y-73978190D01*
X146227906Y-74064350D01*
X146227913Y-74064354D01*
X146359470Y-74113422D01*
X146415404Y-74155293D01*
X146439821Y-74220758D01*
X146424969Y-74289031D01*
X146403819Y-74317285D01*
X146289889Y-74431215D01*
X146164951Y-74603179D01*
X146068444Y-74792585D01*
X146002753Y-74994760D01*
X145969500Y-75204713D01*
X145969500Y-75417286D01*
X146002753Y-75627239D01*
X146068444Y-75829414D01*
X146164951Y-76018820D01*
X146289890Y-76190786D01*
X146440213Y-76341109D01*
X146612182Y-76466050D01*
X146620946Y-76470516D01*
X146671742Y-76518491D01*
X146688536Y-76586312D01*
X146665998Y-76652447D01*
X146620946Y-76691484D01*
X146612182Y-76695949D01*
X146440213Y-76820890D01*
X146289890Y-76971213D01*
X146164951Y-77143179D01*
X146068444Y-77332585D01*
X146002753Y-77534760D01*
X145969500Y-77744713D01*
X145969500Y-77957286D01*
X146002753Y-78167239D01*
X146068444Y-78369414D01*
X146164951Y-78558820D01*
X146289890Y-78730786D01*
X146440213Y-78881109D01*
X146612182Y-79006050D01*
X146620946Y-79010516D01*
X146671742Y-79058491D01*
X146688536Y-79126312D01*
X146665998Y-79192447D01*
X146620946Y-79231484D01*
X146612182Y-79235949D01*
X146440213Y-79360890D01*
X146289890Y-79511213D01*
X146164951Y-79683179D01*
X146068444Y-79872585D01*
X146002753Y-80074760D01*
X145969500Y-80284713D01*
X145969500Y-80497286D01*
X146002753Y-80707239D01*
X146068444Y-80909414D01*
X146164951Y-81098820D01*
X146289890Y-81270786D01*
X146440213Y-81421109D01*
X146612182Y-81546050D01*
X146620946Y-81550516D01*
X146671742Y-81598491D01*
X146688536Y-81666312D01*
X146665998Y-81732447D01*
X146620946Y-81771484D01*
X146612182Y-81775949D01*
X146440213Y-81900890D01*
X146289890Y-82051213D01*
X146164951Y-82223179D01*
X146068444Y-82412585D01*
X146002753Y-82614760D01*
X145969500Y-82824713D01*
X145969500Y-83037286D01*
X146002754Y-83247244D01*
X146002754Y-83247247D01*
X146016491Y-83289523D01*
X146018486Y-83359364D01*
X145986241Y-83415522D01*
X145173286Y-84228478D01*
X145061481Y-84340282D01*
X145061479Y-84340285D01*
X145011361Y-84427094D01*
X145011359Y-84427096D01*
X144982425Y-84477209D01*
X144982424Y-84477210D01*
X144982423Y-84477215D01*
X144941499Y-84629943D01*
X144941499Y-84629945D01*
X144941499Y-84798046D01*
X144941500Y-84798059D01*
X144941500Y-107658902D01*
X144921815Y-107725941D01*
X144905181Y-107746583D01*
X144241681Y-108410082D01*
X144180358Y-108443567D01*
X144110666Y-108438583D01*
X144054733Y-108396711D01*
X144030316Y-108331247D01*
X144030000Y-108322401D01*
X144030000Y-108220818D01*
X143995526Y-108003164D01*
X143927432Y-107793589D01*
X143827388Y-107597243D01*
X143781066Y-107533485D01*
X143781065Y-107533485D01*
X143072138Y-108242414D01*
X143049333Y-108157306D01*
X142990090Y-108054694D01*
X142906306Y-107970910D01*
X142803694Y-107911667D01*
X142718582Y-107888861D01*
X143402601Y-107204844D01*
X143451279Y-107174819D01*
X143451282Y-107174818D01*
X143599220Y-107125797D01*
X143748581Y-107033670D01*
X143872670Y-106909581D01*
X143964797Y-106760220D01*
X144019996Y-106593638D01*
X144030500Y-106490826D01*
X144030500Y-105091174D01*
X144019996Y-104988362D01*
X144018179Y-104982880D01*
X143984224Y-104880408D01*
X143964797Y-104821780D01*
X143872670Y-104672419D01*
X143748581Y-104548330D01*
X143627675Y-104473754D01*
X143599222Y-104456204D01*
X143599217Y-104456202D01*
X143432638Y-104401003D01*
X143329833Y-104390500D01*
X143329826Y-104390500D01*
X141930174Y-104390500D01*
X141930166Y-104390500D01*
X141827361Y-104401003D01*
X141660782Y-104456202D01*
X141660777Y-104456204D01*
X141511417Y-104548331D01*
X141387331Y-104672417D01*
X141295204Y-104821777D01*
X141295202Y-104821782D01*
X141240003Y-104988361D01*
X141229500Y-105091166D01*
X141229500Y-106490833D01*
X141240003Y-106593638D01*
X141293712Y-106755719D01*
X141295203Y-106760220D01*
X141387330Y-106909581D01*
X141511419Y-107033670D01*
X141660780Y-107125797D01*
X141808718Y-107174818D01*
X141857396Y-107204843D01*
X142541415Y-107888861D01*
X142456306Y-107911667D01*
X142353694Y-107970910D01*
X142269910Y-108054694D01*
X142210667Y-108157306D01*
X142187861Y-108242414D01*
X141478932Y-107533485D01*
X141478931Y-107533485D01*
X141432616Y-107597233D01*
X141332567Y-107793589D01*
X141264473Y-108003164D01*
X141230000Y-108220818D01*
X141230000Y-108441181D01*
X141264473Y-108658835D01*
X141332567Y-108868410D01*
X141432611Y-109064756D01*
X141478932Y-109128513D01*
X142187861Y-108419584D01*
X142210667Y-108504694D01*
X142269910Y-108607306D01*
X142353694Y-108691090D01*
X142456306Y-108750333D01*
X142541414Y-108773138D01*
X141832485Y-109482065D01*
X141832485Y-109482066D01*
X141857680Y-109500371D01*
X141900346Y-109555701D01*
X141906325Y-109625314D01*
X141873720Y-109687110D01*
X141857681Y-109701008D01*
X141717636Y-109802756D01*
X141561756Y-109958636D01*
X141561752Y-109958641D01*
X141432187Y-110136974D01*
X141332104Y-110333393D01*
X141332103Y-110333396D01*
X141263985Y-110543047D01*
X141242610Y-110678007D01*
X141229500Y-110760778D01*
X141229500Y-110981222D01*
X141242610Y-111063993D01*
X141263985Y-111198952D01*
X141332103Y-111408603D01*
X141332104Y-111408606D01*
X141432184Y-111605021D01*
X141499457Y-111697615D01*
X141522936Y-111763422D01*
X141507110Y-111831476D01*
X141457004Y-111880170D01*
X141399138Y-111894500D01*
X140705500Y-111894500D01*
X140638461Y-111874815D01*
X140592706Y-111822011D01*
X140581500Y-111770500D01*
X140581500Y-88886135D01*
X141143500Y-88886135D01*
X141143500Y-90681870D01*
X141143501Y-90681876D01*
X141149908Y-90741483D01*
X141200202Y-90876328D01*
X141200206Y-90876335D01*
X141286452Y-90991544D01*
X141286455Y-90991547D01*
X141401664Y-91077793D01*
X141401671Y-91077797D01*
X141533082Y-91126810D01*
X141589016Y-91168681D01*
X141613433Y-91234145D01*
X141598582Y-91302418D01*
X141577431Y-91330673D01*
X141463889Y-91444215D01*
X141338951Y-91616179D01*
X141242444Y-91805585D01*
X141176753Y-92007760D01*
X141143500Y-92217713D01*
X141143500Y-92430286D01*
X141174351Y-92625075D01*
X141176754Y-92640243D01*
X141223461Y-92783993D01*
X141242444Y-92842414D01*
X141338951Y-93031820D01*
X141463890Y-93203786D01*
X141614213Y-93354109D01*
X141786179Y-93479048D01*
X141786181Y-93479049D01*
X141786184Y-93479051D01*
X141975588Y-93575557D01*
X142177757Y-93641246D01*
X142387713Y-93674500D01*
X142387714Y-93674500D01*
X142600286Y-93674500D01*
X142600287Y-93674500D01*
X142810243Y-93641246D01*
X143012412Y-93575557D01*
X143201816Y-93479051D01*
X143223789Y-93463086D01*
X143373786Y-93354109D01*
X143373788Y-93354106D01*
X143373792Y-93354104D01*
X143524104Y-93203792D01*
X143524106Y-93203788D01*
X143524109Y-93203786D01*
X143649048Y-93031820D01*
X143649047Y-93031820D01*
X143649051Y-93031816D01*
X143745557Y-92842412D01*
X143811246Y-92640243D01*
X143844500Y-92430287D01*
X143844500Y-92217713D01*
X143811246Y-92007757D01*
X143745557Y-91805588D01*
X143649051Y-91616184D01*
X143649049Y-91616181D01*
X143649048Y-91616179D01*
X143524109Y-91444213D01*
X143410569Y-91330673D01*
X143377084Y-91269350D01*
X143382068Y-91199658D01*
X143423940Y-91143725D01*
X143454915Y-91126810D01*
X143586331Y-91077796D01*
X143701546Y-90991546D01*
X143787796Y-90876331D01*
X143838091Y-90741483D01*
X143844500Y-90681873D01*
X143844499Y-88886128D01*
X143838091Y-88826517D01*
X143787796Y-88691669D01*
X143787795Y-88691668D01*
X143787793Y-88691664D01*
X143701547Y-88576455D01*
X143701544Y-88576452D01*
X143586335Y-88490206D01*
X143586328Y-88490202D01*
X143451482Y-88439908D01*
X143451483Y-88439908D01*
X143391883Y-88433501D01*
X143391881Y-88433500D01*
X143391873Y-88433500D01*
X143391864Y-88433500D01*
X141596129Y-88433500D01*
X141596123Y-88433501D01*
X141536516Y-88439908D01*
X141401671Y-88490202D01*
X141401664Y-88490206D01*
X141286455Y-88576452D01*
X141286452Y-88576455D01*
X141200206Y-88691664D01*
X141200202Y-88691671D01*
X141149908Y-88826517D01*
X141146413Y-88859029D01*
X141143501Y-88886123D01*
X141143500Y-88886135D01*
X140581500Y-88886135D01*
X140581500Y-71998500D01*
X140601185Y-71931461D01*
X140653989Y-71885706D01*
X140705500Y-71874500D01*
X145846000Y-71874500D01*
X145913039Y-71894185D01*
G37*
%TD.AperFunction*%
%TA.AperFunction,Conductor*%
G36*
X145920699Y-108532048D02*
G01*
X145976632Y-108573920D01*
X145999838Y-108628833D01*
X146002754Y-108647243D01*
X146046214Y-108781000D01*
X146068444Y-108849414D01*
X146164951Y-109038820D01*
X146289890Y-109210786D01*
X146440213Y-109361109D01*
X146612179Y-109486048D01*
X146612181Y-109486049D01*
X146612184Y-109486051D01*
X146621493Y-109490794D01*
X146672290Y-109538766D01*
X146689087Y-109606587D01*
X146666552Y-109672722D01*
X146621505Y-109711760D01*
X146612446Y-109716376D01*
X146612440Y-109716380D01*
X146558282Y-109755727D01*
X146558282Y-109755728D01*
X147190591Y-110388037D01*
X147127007Y-110405075D01*
X147012993Y-110470901D01*
X146919901Y-110563993D01*
X146854075Y-110678007D01*
X146837037Y-110741591D01*
X146204728Y-110109282D01*
X146204727Y-110109282D01*
X146165380Y-110163439D01*
X146068904Y-110352782D01*
X146003242Y-110554869D01*
X146003242Y-110554872D01*
X145970000Y-110764753D01*
X145970000Y-110977246D01*
X146003242Y-111187127D01*
X146003242Y-111187130D01*
X146068904Y-111389217D01*
X146165379Y-111578557D01*
X146251879Y-111697615D01*
X146275359Y-111763421D01*
X146259533Y-111831475D01*
X146209428Y-111880170D01*
X146151561Y-111894500D01*
X143860862Y-111894500D01*
X143793823Y-111874815D01*
X143748068Y-111822011D01*
X143738124Y-111752853D01*
X143760543Y-111697615D01*
X143782431Y-111667487D01*
X143827815Y-111605022D01*
X143927895Y-111408606D01*
X143996015Y-111198951D01*
X144030500Y-110981222D01*
X144030500Y-110760778D01*
X143996015Y-110543049D01*
X143973188Y-110472794D01*
X143971193Y-110402953D01*
X144003436Y-110346797D01*
X145789686Y-108560547D01*
X145851007Y-108527064D01*
X145920699Y-108532048D01*
G37*
%TD.AperFunction*%
%TA.AperFunction,Conductor*%
G36*
X148661444Y-108984999D02*
G01*
X148700486Y-109030056D01*
X148704951Y-109038820D01*
X148829890Y-109210786D01*
X148980213Y-109361109D01*
X149152182Y-109486050D01*
X149160946Y-109490516D01*
X149211742Y-109538491D01*
X149228536Y-109606312D01*
X149205998Y-109672447D01*
X149160946Y-109711484D01*
X149152182Y-109715949D01*
X148980213Y-109840890D01*
X148829890Y-109991213D01*
X148704949Y-110163182D01*
X148700202Y-110172499D01*
X148652227Y-110223293D01*
X148584405Y-110240087D01*
X148518271Y-110217548D01*
X148479234Y-110172495D01*
X148474626Y-110163452D01*
X148435270Y-110109282D01*
X148435269Y-110109282D01*
X147802962Y-110741589D01*
X147785925Y-110678007D01*
X147720099Y-110563993D01*
X147627007Y-110470901D01*
X147512993Y-110405075D01*
X147449409Y-110388037D01*
X148081716Y-109755728D01*
X148027547Y-109716373D01*
X148027547Y-109716372D01*
X148018500Y-109711763D01*
X147967706Y-109663788D01*
X147950912Y-109595966D01*
X147973451Y-109529832D01*
X148018508Y-109490793D01*
X148027816Y-109486051D01*
X148107007Y-109428515D01*
X148199786Y-109361109D01*
X148199788Y-109361106D01*
X148199792Y-109361104D01*
X148350104Y-109210792D01*
X148350106Y-109210788D01*
X148350109Y-109210786D01*
X148475048Y-109038820D01*
X148475047Y-109038820D01*
X148475051Y-109038816D01*
X148479514Y-109030054D01*
X148527488Y-108979259D01*
X148595308Y-108962463D01*
X148661444Y-108984999D01*
G37*
%TD.AperFunction*%
%TA.AperFunction,Conductor*%
G36*
X149394075Y-103443993D02*
G01*
X149459901Y-103558007D01*
X149552993Y-103651099D01*
X149667007Y-103716925D01*
X149730590Y-103733962D01*
X149098282Y-104366269D01*
X149098282Y-104366270D01*
X149152452Y-104405626D01*
X149152451Y-104405626D01*
X149161495Y-104410234D01*
X149212292Y-104458208D01*
X149229087Y-104526029D01*
X149206550Y-104592164D01*
X149161499Y-104631202D01*
X149152182Y-104635949D01*
X148980213Y-104760890D01*
X148829890Y-104911213D01*
X148704949Y-105083182D01*
X148700484Y-105091946D01*
X148652509Y-105142742D01*
X148584688Y-105159536D01*
X148518553Y-105136998D01*
X148479516Y-105091946D01*
X148475050Y-105083182D01*
X148350109Y-104911213D01*
X148199786Y-104760890D01*
X148027820Y-104635951D01*
X148027115Y-104635591D01*
X148019054Y-104631485D01*
X147968259Y-104583512D01*
X147951463Y-104515692D01*
X147973999Y-104449556D01*
X148019054Y-104410515D01*
X148027816Y-104406051D01*
X148082572Y-104366269D01*
X148199786Y-104281109D01*
X148199788Y-104281106D01*
X148199792Y-104281104D01*
X148350104Y-104130792D01*
X148350106Y-104130788D01*
X148350109Y-104130786D01*
X148417515Y-104038007D01*
X148475051Y-103958816D01*
X148479793Y-103949508D01*
X148527763Y-103898711D01*
X148595583Y-103881911D01*
X148661719Y-103904445D01*
X148700763Y-103949500D01*
X148705373Y-103958547D01*
X148744728Y-104012716D01*
X149377037Y-103380408D01*
X149394075Y-103443993D01*
G37*
%TD.AperFunction*%
%TA.AperFunction,Conductor*%
G36*
X150975270Y-104012717D02*
G01*
X151003771Y-104010474D01*
X151072148Y-104024838D01*
X151121905Y-104073890D01*
X151137500Y-104134092D01*
X151137500Y-104870086D01*
X151117815Y-104937125D01*
X151065011Y-104982880D01*
X150995853Y-104992824D01*
X150932297Y-104963799D01*
X150913182Y-104942971D01*
X150890109Y-104911214D01*
X150890105Y-104911209D01*
X150739786Y-104760890D01*
X150567817Y-104635949D01*
X150558504Y-104631204D01*
X150507707Y-104583230D01*
X150490912Y-104515409D01*
X150513449Y-104449274D01*
X150558507Y-104410232D01*
X150567555Y-104405622D01*
X150621716Y-104366270D01*
X150621717Y-104366270D01*
X149989408Y-103733962D01*
X150052993Y-103716925D01*
X150167007Y-103651099D01*
X150260099Y-103558007D01*
X150325925Y-103443993D01*
X150342962Y-103380408D01*
X150975270Y-104012717D01*
G37*
%TD.AperFunction*%
%TA.AperFunction,Conductor*%
G36*
X148607226Y-101346524D02*
G01*
X148619810Y-101345985D01*
X148639674Y-101357581D01*
X148661444Y-101364999D01*
X148670719Y-101375703D01*
X148680151Y-101381209D01*
X148700486Y-101410056D01*
X148704951Y-101418820D01*
X148829890Y-101590786D01*
X148980213Y-101741109D01*
X149152179Y-101866048D01*
X149152181Y-101866049D01*
X149152184Y-101866051D01*
X149161493Y-101870794D01*
X149212290Y-101918766D01*
X149229087Y-101986587D01*
X149206552Y-102052722D01*
X149161505Y-102091760D01*
X149152446Y-102096376D01*
X149152440Y-102096380D01*
X149098282Y-102135727D01*
X149098282Y-102135728D01*
X149730591Y-102768037D01*
X149667007Y-102785075D01*
X149552993Y-102850901D01*
X149459901Y-102943993D01*
X149394075Y-103058007D01*
X149377037Y-103121591D01*
X148744728Y-102489282D01*
X148744727Y-102489282D01*
X148705380Y-102543440D01*
X148705376Y-102543446D01*
X148700760Y-102552505D01*
X148652781Y-102603297D01*
X148584959Y-102620087D01*
X148518826Y-102597543D01*
X148479794Y-102552493D01*
X148475051Y-102543184D01*
X148475049Y-102543181D01*
X148475048Y-102543179D01*
X148350109Y-102371213D01*
X148199786Y-102220890D01*
X148027820Y-102095951D01*
X148019600Y-102091763D01*
X148019054Y-102091485D01*
X147968259Y-102043512D01*
X147951463Y-101975692D01*
X147973999Y-101909556D01*
X148019054Y-101870515D01*
X148027816Y-101866051D01*
X148049789Y-101850086D01*
X148199786Y-101741109D01*
X148199788Y-101741106D01*
X148199792Y-101741104D01*
X148350104Y-101590792D01*
X148350106Y-101590788D01*
X148350109Y-101590786D01*
X148475048Y-101418820D01*
X148475047Y-101418820D01*
X148475051Y-101418816D01*
X148479514Y-101410054D01*
X148488160Y-101400900D01*
X148492897Y-101389232D01*
X148511696Y-101375979D01*
X148527488Y-101359259D01*
X148539710Y-101356231D01*
X148550004Y-101348976D01*
X148572985Y-101347991D01*
X148595308Y-101342463D01*
X148607226Y-101346524D01*
G37*
%TD.AperFunction*%
%TA.AperFunction,Conductor*%
G36*
X151099919Y-101542987D02*
G01*
X151134277Y-101603825D01*
X151137500Y-101631913D01*
X151137500Y-102367907D01*
X151117815Y-102434946D01*
X151065011Y-102480701D01*
X151003771Y-102491525D01*
X150975270Y-102489281D01*
X150342962Y-103121590D01*
X150325925Y-103058007D01*
X150260099Y-102943993D01*
X150167007Y-102850901D01*
X150052993Y-102785075D01*
X149989409Y-102768037D01*
X150621716Y-102135728D01*
X150567547Y-102096373D01*
X150567547Y-102096372D01*
X150558500Y-102091763D01*
X150507706Y-102043788D01*
X150490912Y-101975966D01*
X150513451Y-101909832D01*
X150558508Y-101870793D01*
X150567816Y-101866051D01*
X150647007Y-101808515D01*
X150739786Y-101741109D01*
X150739788Y-101741106D01*
X150739792Y-101741104D01*
X150890104Y-101590792D01*
X150913181Y-101559028D01*
X150968510Y-101516363D01*
X151038123Y-101510382D01*
X151099919Y-101542987D01*
G37*
%TD.AperFunction*%
%TA.AperFunction,Conductor*%
G36*
X149394075Y-98363993D02*
G01*
X149459901Y-98478007D01*
X149552993Y-98571099D01*
X149667007Y-98636925D01*
X149730590Y-98653962D01*
X149098282Y-99286269D01*
X149098282Y-99286270D01*
X149152452Y-99325626D01*
X149152451Y-99325626D01*
X149161495Y-99330234D01*
X149212292Y-99378208D01*
X149229087Y-99446029D01*
X149206550Y-99512164D01*
X149161499Y-99551202D01*
X149152182Y-99555949D01*
X148980213Y-99680890D01*
X148829890Y-99831213D01*
X148704949Y-100003182D01*
X148700484Y-100011946D01*
X148652509Y-100062742D01*
X148584688Y-100079536D01*
X148518553Y-100056998D01*
X148479516Y-100011946D01*
X148475050Y-100003182D01*
X148350109Y-99831213D01*
X148199786Y-99680890D01*
X148027820Y-99555951D01*
X148027115Y-99555591D01*
X148019054Y-99551485D01*
X147968259Y-99503512D01*
X147951463Y-99435692D01*
X147973999Y-99369556D01*
X148019054Y-99330515D01*
X148027816Y-99326051D01*
X148082572Y-99286269D01*
X148199786Y-99201109D01*
X148199788Y-99201106D01*
X148199792Y-99201104D01*
X148350104Y-99050792D01*
X148350106Y-99050788D01*
X148350109Y-99050786D01*
X148417515Y-98958007D01*
X148475051Y-98878816D01*
X148479793Y-98869508D01*
X148527763Y-98818711D01*
X148595583Y-98801911D01*
X148661719Y-98824445D01*
X148700763Y-98869500D01*
X148705373Y-98878547D01*
X148744728Y-98932716D01*
X149377037Y-98300408D01*
X149394075Y-98363993D01*
G37*
%TD.AperFunction*%
%TA.AperFunction,Conductor*%
G36*
X150975270Y-98932717D02*
G01*
X151003771Y-98930474D01*
X151072148Y-98944838D01*
X151121905Y-98993890D01*
X151137500Y-99054092D01*
X151137500Y-99790086D01*
X151117815Y-99857125D01*
X151065011Y-99902880D01*
X150995853Y-99912824D01*
X150932297Y-99883799D01*
X150913182Y-99862971D01*
X150890109Y-99831214D01*
X150890105Y-99831209D01*
X150739786Y-99680890D01*
X150567817Y-99555949D01*
X150558504Y-99551204D01*
X150507707Y-99503230D01*
X150490912Y-99435409D01*
X150513449Y-99369274D01*
X150558507Y-99330232D01*
X150567555Y-99325622D01*
X150621716Y-99286270D01*
X150621717Y-99286270D01*
X149989408Y-98653962D01*
X150052993Y-98636925D01*
X150167007Y-98571099D01*
X150260099Y-98478007D01*
X150325925Y-98363993D01*
X150342962Y-98300408D01*
X150975270Y-98932717D01*
G37*
%TD.AperFunction*%
%TA.AperFunction,Conductor*%
G36*
X148661444Y-96284999D02*
G01*
X148700486Y-96330056D01*
X148704951Y-96338820D01*
X148829890Y-96510786D01*
X148980213Y-96661109D01*
X149152179Y-96786048D01*
X149152181Y-96786049D01*
X149152184Y-96786051D01*
X149161493Y-96790794D01*
X149212290Y-96838766D01*
X149229087Y-96906587D01*
X149206552Y-96972722D01*
X149161505Y-97011760D01*
X149152446Y-97016376D01*
X149152440Y-97016380D01*
X149098282Y-97055727D01*
X149098282Y-97055728D01*
X149730591Y-97688037D01*
X149667007Y-97705075D01*
X149552993Y-97770901D01*
X149459901Y-97863993D01*
X149394075Y-97978007D01*
X149377037Y-98041591D01*
X148744728Y-97409282D01*
X148744727Y-97409282D01*
X148705380Y-97463440D01*
X148705376Y-97463446D01*
X148700760Y-97472505D01*
X148652781Y-97523297D01*
X148584959Y-97540087D01*
X148518826Y-97517543D01*
X148479794Y-97472493D01*
X148475051Y-97463184D01*
X148475049Y-97463181D01*
X148475048Y-97463179D01*
X148350109Y-97291213D01*
X148199786Y-97140890D01*
X148027820Y-97015951D01*
X148019600Y-97011763D01*
X148019054Y-97011485D01*
X147968259Y-96963512D01*
X147951463Y-96895692D01*
X147973999Y-96829556D01*
X148019054Y-96790515D01*
X148027816Y-96786051D01*
X148049789Y-96770086D01*
X148199786Y-96661109D01*
X148199788Y-96661106D01*
X148199792Y-96661104D01*
X148350104Y-96510792D01*
X148350106Y-96510788D01*
X148350109Y-96510786D01*
X148475048Y-96338820D01*
X148475047Y-96338820D01*
X148475051Y-96338816D01*
X148479514Y-96330054D01*
X148527488Y-96279259D01*
X148595308Y-96262463D01*
X148661444Y-96284999D01*
G37*
%TD.AperFunction*%
%TA.AperFunction,Conductor*%
G36*
X151099919Y-96462987D02*
G01*
X151134277Y-96523825D01*
X151137500Y-96551913D01*
X151137500Y-97287907D01*
X151117815Y-97354946D01*
X151065011Y-97400701D01*
X151003771Y-97411525D01*
X150975270Y-97409281D01*
X150342962Y-98041590D01*
X150325925Y-97978007D01*
X150260099Y-97863993D01*
X150167007Y-97770901D01*
X150052993Y-97705075D01*
X149989409Y-97688037D01*
X150621716Y-97055728D01*
X150567547Y-97016373D01*
X150567547Y-97016372D01*
X150558500Y-97011763D01*
X150507706Y-96963788D01*
X150490912Y-96895966D01*
X150513451Y-96829832D01*
X150558508Y-96790793D01*
X150567816Y-96786051D01*
X150647007Y-96728515D01*
X150739786Y-96661109D01*
X150739788Y-96661106D01*
X150739792Y-96661104D01*
X150890104Y-96510792D01*
X150913181Y-96479028D01*
X150968510Y-96436363D01*
X151038123Y-96430382D01*
X151099919Y-96462987D01*
G37*
%TD.AperFunction*%
%TA.AperFunction,Conductor*%
G36*
X148435270Y-93852717D02*
G01*
X148435270Y-93852716D01*
X148474622Y-93798555D01*
X148479232Y-93789507D01*
X148527205Y-93738709D01*
X148595025Y-93721912D01*
X148661161Y-93744447D01*
X148700204Y-93789504D01*
X148704949Y-93798817D01*
X148829890Y-93970786D01*
X148980213Y-94121109D01*
X149152182Y-94246050D01*
X149160946Y-94250516D01*
X149211742Y-94298491D01*
X149228536Y-94366312D01*
X149205998Y-94432447D01*
X149160946Y-94471484D01*
X149152182Y-94475949D01*
X148980213Y-94600890D01*
X148829890Y-94751213D01*
X148704949Y-94923182D01*
X148700484Y-94931946D01*
X148652509Y-94982742D01*
X148584688Y-94999536D01*
X148518553Y-94976998D01*
X148479516Y-94931946D01*
X148475050Y-94923182D01*
X148350109Y-94751213D01*
X148199786Y-94600890D01*
X148027817Y-94475949D01*
X148018504Y-94471204D01*
X147967707Y-94423230D01*
X147950912Y-94355409D01*
X147973449Y-94289274D01*
X148018507Y-94250232D01*
X148027555Y-94245622D01*
X148081716Y-94206270D01*
X148081717Y-94206270D01*
X147449408Y-93573962D01*
X147512993Y-93556925D01*
X147627007Y-93491099D01*
X147720099Y-93398007D01*
X147785925Y-93283993D01*
X147802962Y-93220409D01*
X148435270Y-93852717D01*
G37*
%TD.AperFunction*%
%TA.AperFunction,Conductor*%
G36*
X146854075Y-93283993D02*
G01*
X146919901Y-93398007D01*
X147012993Y-93491099D01*
X147127007Y-93556925D01*
X147190590Y-93573962D01*
X146558282Y-94206269D01*
X146558282Y-94206270D01*
X146612452Y-94245626D01*
X146612451Y-94245626D01*
X146621495Y-94250234D01*
X146672292Y-94298208D01*
X146689087Y-94366029D01*
X146666550Y-94432164D01*
X146621499Y-94471202D01*
X146612182Y-94475949D01*
X146440213Y-94600890D01*
X146440209Y-94600894D01*
X146354181Y-94686923D01*
X146292858Y-94720408D01*
X146223166Y-94715424D01*
X146167233Y-94673552D01*
X146142816Y-94608088D01*
X146142500Y-94599242D01*
X146142500Y-93966307D01*
X146162185Y-93899268D01*
X146178819Y-93878626D01*
X146837037Y-93220408D01*
X146854075Y-93283993D01*
G37*
%TD.AperFunction*%
%TA.AperFunction,Conductor*%
G36*
X146347703Y-91489045D02*
G01*
X146354181Y-91495077D01*
X146440213Y-91581109D01*
X146612179Y-91706048D01*
X146612181Y-91706049D01*
X146612184Y-91706051D01*
X146621493Y-91710794D01*
X146672290Y-91758766D01*
X146689087Y-91826587D01*
X146666552Y-91892722D01*
X146621505Y-91931760D01*
X146612446Y-91936376D01*
X146612440Y-91936380D01*
X146558282Y-91975727D01*
X146558282Y-91975728D01*
X147190591Y-92608037D01*
X147127007Y-92625075D01*
X147012993Y-92690901D01*
X146919901Y-92783993D01*
X146854075Y-92898007D01*
X146837037Y-92961591D01*
X146178819Y-92303373D01*
X146145334Y-92242050D01*
X146142500Y-92215692D01*
X146142500Y-91582758D01*
X146162185Y-91515719D01*
X146214989Y-91469964D01*
X146284147Y-91460020D01*
X146347703Y-91489045D01*
G37*
%TD.AperFunction*%
%TA.AperFunction,Conductor*%
G36*
X148661444Y-91204999D02*
G01*
X148700486Y-91250056D01*
X148704951Y-91258820D01*
X148829890Y-91430786D01*
X148980213Y-91581109D01*
X149152182Y-91706050D01*
X149160946Y-91710516D01*
X149211742Y-91758491D01*
X149228536Y-91826312D01*
X149205998Y-91892447D01*
X149160946Y-91931484D01*
X149152182Y-91935949D01*
X148980213Y-92060890D01*
X148829890Y-92211213D01*
X148704949Y-92383182D01*
X148700202Y-92392499D01*
X148652227Y-92443293D01*
X148584405Y-92460087D01*
X148518271Y-92437548D01*
X148479234Y-92392495D01*
X148474626Y-92383452D01*
X148435270Y-92329282D01*
X148435269Y-92329282D01*
X147802962Y-92961590D01*
X147785925Y-92898007D01*
X147720099Y-92783993D01*
X147627007Y-92690901D01*
X147512993Y-92625075D01*
X147449409Y-92608037D01*
X148081716Y-91975728D01*
X148027547Y-91936373D01*
X148027547Y-91936372D01*
X148018500Y-91931763D01*
X147967706Y-91883788D01*
X147950912Y-91815966D01*
X147973451Y-91749832D01*
X148018508Y-91710793D01*
X148027816Y-91706051D01*
X148107007Y-91648515D01*
X148199786Y-91581109D01*
X148199788Y-91581106D01*
X148199792Y-91581104D01*
X148350104Y-91430792D01*
X148350106Y-91430788D01*
X148350109Y-91430786D01*
X148475048Y-91258820D01*
X148475047Y-91258820D01*
X148475051Y-91258816D01*
X148479514Y-91250054D01*
X148527488Y-91199259D01*
X148595308Y-91182463D01*
X148661444Y-91204999D01*
G37*
%TD.AperFunction*%
%TA.AperFunction,Conductor*%
G36*
X148661444Y-88664999D02*
G01*
X148700486Y-88710056D01*
X148704951Y-88718820D01*
X148829890Y-88890786D01*
X148980213Y-89041109D01*
X149152182Y-89166050D01*
X149160946Y-89170516D01*
X149211742Y-89218491D01*
X149228536Y-89286312D01*
X149205998Y-89352447D01*
X149160946Y-89391484D01*
X149152182Y-89395949D01*
X148980213Y-89520890D01*
X148829890Y-89671213D01*
X148704949Y-89843182D01*
X148700484Y-89851946D01*
X148652509Y-89902742D01*
X148584688Y-89919536D01*
X148518553Y-89896998D01*
X148479516Y-89851946D01*
X148475050Y-89843182D01*
X148350109Y-89671213D01*
X148199786Y-89520890D01*
X148027820Y-89395951D01*
X148027115Y-89395591D01*
X148019054Y-89391485D01*
X147968259Y-89343512D01*
X147951463Y-89275692D01*
X147973999Y-89209556D01*
X148019054Y-89170515D01*
X148027816Y-89166051D01*
X148049789Y-89150086D01*
X148199786Y-89041109D01*
X148199788Y-89041106D01*
X148199792Y-89041104D01*
X148350104Y-88890792D01*
X148350106Y-88890788D01*
X148350109Y-88890786D01*
X148475048Y-88718820D01*
X148475047Y-88718820D01*
X148475051Y-88718816D01*
X148479514Y-88710054D01*
X148527488Y-88659259D01*
X148595308Y-88642463D01*
X148661444Y-88664999D01*
G37*
%TD.AperFunction*%
%TA.AperFunction,Conductor*%
G36*
X149394075Y-85663993D02*
G01*
X149459901Y-85778007D01*
X149552993Y-85871099D01*
X149667007Y-85936925D01*
X149730590Y-85953962D01*
X149098282Y-86586269D01*
X149098282Y-86586270D01*
X149152452Y-86625626D01*
X149152451Y-86625626D01*
X149161495Y-86630234D01*
X149212292Y-86678208D01*
X149229087Y-86746029D01*
X149206550Y-86812164D01*
X149161499Y-86851202D01*
X149152182Y-86855949D01*
X148980213Y-86980890D01*
X148829890Y-87131213D01*
X148704949Y-87303182D01*
X148700484Y-87311946D01*
X148652509Y-87362742D01*
X148584688Y-87379536D01*
X148518553Y-87356998D01*
X148479516Y-87311946D01*
X148475050Y-87303182D01*
X148350109Y-87131213D01*
X148199786Y-86980890D01*
X148027820Y-86855951D01*
X148027115Y-86855591D01*
X148019054Y-86851485D01*
X147968259Y-86803512D01*
X147951463Y-86735692D01*
X147973999Y-86669556D01*
X148019054Y-86630515D01*
X148027816Y-86626051D01*
X148082572Y-86586269D01*
X148199786Y-86501109D01*
X148199788Y-86501106D01*
X148199792Y-86501104D01*
X148350104Y-86350792D01*
X148350106Y-86350788D01*
X148350109Y-86350786D01*
X148417515Y-86258007D01*
X148475051Y-86178816D01*
X148479793Y-86169508D01*
X148527763Y-86118711D01*
X148595583Y-86101911D01*
X148661719Y-86124445D01*
X148700763Y-86169500D01*
X148705373Y-86178547D01*
X148744728Y-86232716D01*
X149377037Y-85600408D01*
X149394075Y-85663993D01*
G37*
%TD.AperFunction*%
%TA.AperFunction,Conductor*%
G36*
X150975270Y-86232717D02*
G01*
X151003771Y-86230474D01*
X151072148Y-86244838D01*
X151121905Y-86293890D01*
X151137500Y-86354092D01*
X151137500Y-87090086D01*
X151117815Y-87157125D01*
X151065011Y-87202880D01*
X150995853Y-87212824D01*
X150932297Y-87183799D01*
X150913182Y-87162971D01*
X150890109Y-87131214D01*
X150890105Y-87131209D01*
X150739786Y-86980890D01*
X150567817Y-86855949D01*
X150558504Y-86851204D01*
X150507707Y-86803230D01*
X150490912Y-86735409D01*
X150513449Y-86669274D01*
X150558507Y-86630232D01*
X150567555Y-86625622D01*
X150621716Y-86586270D01*
X150621717Y-86586270D01*
X149989408Y-85953962D01*
X150052993Y-85936925D01*
X150167007Y-85871099D01*
X150260099Y-85778007D01*
X150325925Y-85663993D01*
X150342962Y-85600408D01*
X150975270Y-86232717D01*
G37*
%TD.AperFunction*%
%TA.AperFunction,Conductor*%
G36*
X148607226Y-83566524D02*
G01*
X148619810Y-83565985D01*
X148639674Y-83577581D01*
X148661444Y-83584999D01*
X148670719Y-83595703D01*
X148680151Y-83601209D01*
X148700486Y-83630056D01*
X148704951Y-83638820D01*
X148829890Y-83810786D01*
X148980213Y-83961109D01*
X149152179Y-84086048D01*
X149152181Y-84086049D01*
X149152184Y-84086051D01*
X149161493Y-84090794D01*
X149212290Y-84138766D01*
X149229087Y-84206587D01*
X149206552Y-84272722D01*
X149161505Y-84311760D01*
X149152446Y-84316376D01*
X149152440Y-84316380D01*
X149098282Y-84355727D01*
X149098282Y-84355728D01*
X149730591Y-84988037D01*
X149667007Y-85005075D01*
X149552993Y-85070901D01*
X149459901Y-85163993D01*
X149394075Y-85278007D01*
X149377037Y-85341591D01*
X148744728Y-84709282D01*
X148744727Y-84709282D01*
X148705380Y-84763440D01*
X148705376Y-84763446D01*
X148700760Y-84772505D01*
X148652781Y-84823297D01*
X148584959Y-84840087D01*
X148518826Y-84817543D01*
X148479794Y-84772493D01*
X148475051Y-84763184D01*
X148475049Y-84763181D01*
X148475048Y-84763179D01*
X148350109Y-84591213D01*
X148199786Y-84440890D01*
X148027820Y-84315951D01*
X148019600Y-84311763D01*
X148019054Y-84311485D01*
X147968259Y-84263512D01*
X147951463Y-84195692D01*
X147973999Y-84129556D01*
X148019054Y-84090515D01*
X148027816Y-84086051D01*
X148049789Y-84070086D01*
X148199786Y-83961109D01*
X148199788Y-83961106D01*
X148199792Y-83961104D01*
X148350104Y-83810792D01*
X148350106Y-83810788D01*
X148350109Y-83810786D01*
X148475048Y-83638820D01*
X148475047Y-83638820D01*
X148475051Y-83638816D01*
X148479514Y-83630054D01*
X148488160Y-83620900D01*
X148492897Y-83609232D01*
X148511696Y-83595979D01*
X148527488Y-83579259D01*
X148539710Y-83576231D01*
X148550004Y-83568976D01*
X148572985Y-83567991D01*
X148595308Y-83562463D01*
X148607226Y-83566524D01*
G37*
%TD.AperFunction*%
%TA.AperFunction,Conductor*%
G36*
X151099919Y-83762987D02*
G01*
X151134277Y-83823825D01*
X151137500Y-83851913D01*
X151137500Y-84587907D01*
X151117815Y-84654946D01*
X151065011Y-84700701D01*
X151003771Y-84711525D01*
X150975270Y-84709281D01*
X150342962Y-85341590D01*
X150325925Y-85278007D01*
X150260099Y-85163993D01*
X150167007Y-85070901D01*
X150052993Y-85005075D01*
X149989409Y-84988037D01*
X150621716Y-84355728D01*
X150567547Y-84316373D01*
X150567547Y-84316372D01*
X150558500Y-84311763D01*
X150507706Y-84263788D01*
X150490912Y-84195966D01*
X150513451Y-84129832D01*
X150558508Y-84090793D01*
X150567816Y-84086051D01*
X150647007Y-84028515D01*
X150739786Y-83961109D01*
X150739788Y-83961106D01*
X150739792Y-83961104D01*
X150890104Y-83810792D01*
X150913181Y-83779028D01*
X150968510Y-83736363D01*
X151038123Y-83730382D01*
X151099919Y-83762987D01*
G37*
%TD.AperFunction*%
%TA.AperFunction,Conductor*%
G36*
X148607226Y-81026524D02*
G01*
X148619810Y-81025985D01*
X148639674Y-81037581D01*
X148661444Y-81044999D01*
X148670719Y-81055703D01*
X148680151Y-81061209D01*
X148700486Y-81090056D01*
X148704951Y-81098820D01*
X148829890Y-81270786D01*
X148980213Y-81421109D01*
X149152182Y-81546050D01*
X149160946Y-81550516D01*
X149211742Y-81598491D01*
X149228536Y-81666312D01*
X149205998Y-81732447D01*
X149160946Y-81771484D01*
X149152182Y-81775949D01*
X148980213Y-81900890D01*
X148829890Y-82051213D01*
X148704949Y-82223182D01*
X148700484Y-82231946D01*
X148652509Y-82282742D01*
X148584688Y-82299536D01*
X148518553Y-82276998D01*
X148479516Y-82231946D01*
X148475050Y-82223182D01*
X148350109Y-82051213D01*
X148199786Y-81900890D01*
X148027820Y-81775951D01*
X148027115Y-81775591D01*
X148019054Y-81771485D01*
X147968259Y-81723512D01*
X147951463Y-81655692D01*
X147973999Y-81589556D01*
X148019054Y-81550515D01*
X148027816Y-81546051D01*
X148049789Y-81530086D01*
X148199786Y-81421109D01*
X148199788Y-81421106D01*
X148199792Y-81421104D01*
X148350104Y-81270792D01*
X148350106Y-81270788D01*
X148350109Y-81270786D01*
X148475048Y-81098820D01*
X148475047Y-81098820D01*
X148475051Y-81098816D01*
X148479514Y-81090054D01*
X148488160Y-81080900D01*
X148492897Y-81069232D01*
X148511696Y-81055979D01*
X148527488Y-81039259D01*
X148539710Y-81036231D01*
X148550004Y-81028976D01*
X148572985Y-81027991D01*
X148595308Y-81022463D01*
X148607226Y-81026524D01*
G37*
%TD.AperFunction*%
%TA.AperFunction,Conductor*%
G36*
X149394075Y-78043993D02*
G01*
X149459901Y-78158007D01*
X149552993Y-78251099D01*
X149667007Y-78316925D01*
X149730590Y-78333962D01*
X149098282Y-78966269D01*
X149098282Y-78966270D01*
X149152452Y-79005626D01*
X149152451Y-79005626D01*
X149161495Y-79010234D01*
X149212292Y-79058208D01*
X149229087Y-79126029D01*
X149206550Y-79192164D01*
X149161499Y-79231202D01*
X149152182Y-79235949D01*
X148980213Y-79360890D01*
X148829890Y-79511213D01*
X148704949Y-79683182D01*
X148700484Y-79691946D01*
X148652509Y-79742742D01*
X148584688Y-79759536D01*
X148518553Y-79736998D01*
X148479516Y-79691946D01*
X148475050Y-79683182D01*
X148350109Y-79511213D01*
X148199786Y-79360890D01*
X148027820Y-79235951D01*
X148027115Y-79235591D01*
X148019054Y-79231485D01*
X147968259Y-79183512D01*
X147951463Y-79115692D01*
X147973999Y-79049556D01*
X148019054Y-79010515D01*
X148027816Y-79006051D01*
X148082572Y-78966269D01*
X148199786Y-78881109D01*
X148199788Y-78881106D01*
X148199792Y-78881104D01*
X148350104Y-78730792D01*
X148350106Y-78730788D01*
X148350109Y-78730786D01*
X148417515Y-78638007D01*
X148475051Y-78558816D01*
X148479793Y-78549508D01*
X148527763Y-78498711D01*
X148595583Y-78481911D01*
X148661719Y-78504445D01*
X148700763Y-78549500D01*
X148705373Y-78558547D01*
X148744728Y-78612716D01*
X149377037Y-77980408D01*
X149394075Y-78043993D01*
G37*
%TD.AperFunction*%
%TA.AperFunction,Conductor*%
G36*
X150975270Y-78612717D02*
G01*
X151003771Y-78610474D01*
X151072148Y-78624838D01*
X151121905Y-78673890D01*
X151137500Y-78734092D01*
X151137500Y-79470086D01*
X151117815Y-79537125D01*
X151065011Y-79582880D01*
X150995853Y-79592824D01*
X150932297Y-79563799D01*
X150913182Y-79542971D01*
X150890109Y-79511214D01*
X150890105Y-79511209D01*
X150739786Y-79360890D01*
X150567817Y-79235949D01*
X150558504Y-79231204D01*
X150507707Y-79183230D01*
X150490912Y-79115409D01*
X150513449Y-79049274D01*
X150558507Y-79010232D01*
X150567555Y-79005622D01*
X150621716Y-78966270D01*
X150621717Y-78966270D01*
X149989408Y-78333962D01*
X150052993Y-78316925D01*
X150167007Y-78251099D01*
X150260099Y-78158007D01*
X150325925Y-78043993D01*
X150342962Y-77980408D01*
X150975270Y-78612717D01*
G37*
%TD.AperFunction*%
%TA.AperFunction,Conductor*%
G36*
X148607226Y-75946524D02*
G01*
X148619810Y-75945985D01*
X148639674Y-75957581D01*
X148661444Y-75964999D01*
X148670719Y-75975703D01*
X148680151Y-75981209D01*
X148700486Y-76010056D01*
X148704951Y-76018820D01*
X148829890Y-76190786D01*
X148980213Y-76341109D01*
X149152179Y-76466048D01*
X149152181Y-76466049D01*
X149152184Y-76466051D01*
X149161493Y-76470794D01*
X149212290Y-76518766D01*
X149229087Y-76586587D01*
X149206552Y-76652722D01*
X149161505Y-76691760D01*
X149152446Y-76696376D01*
X149152440Y-76696380D01*
X149098282Y-76735727D01*
X149098282Y-76735728D01*
X149730591Y-77368037D01*
X149667007Y-77385075D01*
X149552993Y-77450901D01*
X149459901Y-77543993D01*
X149394075Y-77658007D01*
X149377037Y-77721591D01*
X148744728Y-77089282D01*
X148744727Y-77089282D01*
X148705380Y-77143440D01*
X148705376Y-77143446D01*
X148700760Y-77152505D01*
X148652781Y-77203297D01*
X148584959Y-77220087D01*
X148518826Y-77197543D01*
X148479794Y-77152493D01*
X148475051Y-77143184D01*
X148475049Y-77143181D01*
X148475048Y-77143179D01*
X148350109Y-76971213D01*
X148199786Y-76820890D01*
X148027820Y-76695951D01*
X148019600Y-76691763D01*
X148019054Y-76691485D01*
X147968259Y-76643512D01*
X147951463Y-76575692D01*
X147973999Y-76509556D01*
X148019054Y-76470515D01*
X148027816Y-76466051D01*
X148049789Y-76450086D01*
X148199786Y-76341109D01*
X148199788Y-76341106D01*
X148199792Y-76341104D01*
X148350104Y-76190792D01*
X148350106Y-76190788D01*
X148350109Y-76190786D01*
X148475048Y-76018820D01*
X148475047Y-76018820D01*
X148475051Y-76018816D01*
X148479514Y-76010054D01*
X148488160Y-76000900D01*
X148492897Y-75989232D01*
X148511696Y-75975979D01*
X148527488Y-75959259D01*
X148539710Y-75956231D01*
X148550004Y-75948976D01*
X148572985Y-75947991D01*
X148595308Y-75942463D01*
X148607226Y-75946524D01*
G37*
%TD.AperFunction*%
%TA.AperFunction,Conductor*%
G36*
X151099919Y-76142987D02*
G01*
X151134277Y-76203825D01*
X151137500Y-76231913D01*
X151137500Y-76967907D01*
X151117815Y-77034946D01*
X151065011Y-77080701D01*
X151003771Y-77091525D01*
X150975270Y-77089281D01*
X150342962Y-77721590D01*
X150325925Y-77658007D01*
X150260099Y-77543993D01*
X150167007Y-77450901D01*
X150052993Y-77385075D01*
X149989409Y-77368037D01*
X150621716Y-76735728D01*
X150567547Y-76696373D01*
X150567547Y-76696372D01*
X150558500Y-76691763D01*
X150507706Y-76643788D01*
X150490912Y-76575966D01*
X150513451Y-76509832D01*
X150558508Y-76470793D01*
X150567816Y-76466051D01*
X150647007Y-76408515D01*
X150739786Y-76341109D01*
X150739788Y-76341106D01*
X150739792Y-76341104D01*
X150890104Y-76190792D01*
X150913181Y-76159028D01*
X150968510Y-76116363D01*
X151038123Y-76110382D01*
X151099919Y-76142987D01*
G37*
%TD.AperFunction*%
%TA.AperFunction,Conductor*%
G36*
X148838030Y-73666030D02*
G01*
X148866285Y-73687181D01*
X148980213Y-73801109D01*
X149152182Y-73926050D01*
X149160946Y-73930516D01*
X149211742Y-73978491D01*
X149228536Y-74046312D01*
X149205998Y-74112447D01*
X149160946Y-74151484D01*
X149152182Y-74155949D01*
X148980213Y-74280890D01*
X148829890Y-74431213D01*
X148704949Y-74603182D01*
X148700484Y-74611946D01*
X148652509Y-74662742D01*
X148584688Y-74679536D01*
X148518553Y-74656998D01*
X148479516Y-74611946D01*
X148475050Y-74603182D01*
X148350109Y-74431213D01*
X148236181Y-74317285D01*
X148202696Y-74255962D01*
X148207680Y-74186270D01*
X148249552Y-74130337D01*
X148280529Y-74113422D01*
X148412086Y-74064354D01*
X148412093Y-74064350D01*
X148527187Y-73978190D01*
X148527190Y-73978187D01*
X148613350Y-73863093D01*
X148613354Y-73863086D01*
X148662422Y-73731529D01*
X148704293Y-73675595D01*
X148769757Y-73651178D01*
X148838030Y-73666030D01*
G37*
%TD.AperFunction*%
%TD*%
M02*
