M48
; DRILL file {KiCad 9.0.4} date 2025-10-17T20:59:10-0500
; FORMAT={-:-/ absolute / metric / decimal}
; #@! TF.CreationDate,2025-10-17T20:59:10-05:00
; #@! TF.GenerationSoftware,Kicad,Pcbnew,9.0.4
; #@! TF.FileFunction,Plated,1,2,PTH
FMAT,2
METRIC
; #@! TA.AperFunction,Plated,PTH,ViaDrill
T1C0.300
; #@! TA.AperFunction,Plated,PTH,ComponentDrill
T2C0.900
; #@! TA.AperFunction,Plated,PTH,ComponentDrill
T3C1.000
%
G90
G05
T1
X142.621Y-103.505
X143.383Y-73.152
X144.145Y-99.695
X144.272Y-79.121
T2
X142.63Y-105.791
X142.63Y-108.331
X142.63Y-110.871
T3
X142.494Y-89.784
X142.494Y-92.324
X147.32Y-72.771
X147.32Y-75.311
X147.32Y-77.851
X147.32Y-80.391
X147.32Y-82.931
X147.32Y-85.471
X147.32Y-88.011
X147.32Y-90.551
X147.32Y-93.091
X147.32Y-95.631
X147.32Y-98.171
X147.32Y-100.711
X147.32Y-103.251
X147.32Y-105.791
X147.32Y-108.331
X147.32Y-110.871
X149.86Y-72.771
X149.86Y-75.311
X149.86Y-77.851
X149.86Y-80.391
X149.86Y-82.931
X149.86Y-85.471
X149.86Y-88.011
X149.86Y-90.551
X149.86Y-93.091
X149.86Y-95.631
X149.86Y-98.171
X149.86Y-100.711
X149.86Y-103.251
X149.86Y-105.791
X149.86Y-108.331
X149.86Y-110.871
M30
